<?xml version="1.0" encoding="utf-8"?>
<!-- Generator: Adobe Illustrator 24.0.0, SVG Export Plug-In . SVG Version: 6.00 Build 0)  -->
<svg version="1.1" xmlns="http://www.w3.org/2000/svg" xmlns:xlink="http://www.w3.org/1999/xlink" x="0px" y="0px"
	 viewBox="0 0 650 450" style="enable-background:new 0 0 650 450;" xml:space="preserve">
<style type="text/css">
	.st0{fill:#FFFFFF;}
	.st1{fill:#E6E7E8;}
	.st2{fill:none;stroke:#404041;stroke-width:2;stroke-miterlimit:10;}
	.st3{fill:#404041;}
	.st4{fill:#E5E9F7;}
	.st5{fill:#EFF1F7;}
	.st6{fill:#8ED1D8;}
	.st7{fill:#76B5ED;}
	.st8{fill:#A6E0F4;}
	.st9{fill:none;stroke:#76B5ED;stroke-width:5;stroke-linecap:round;stroke-miterlimit:10;stroke-dasharray:0,8;}
	.st10{fill:#DCDDE3;}
	.st11{fill:#659BCC;}
	.st12{fill:#BBD9F9;}
	.st13{fill:none;stroke:#76B5ED;stroke-miterlimit:10;}
	.st14{fill:none;stroke:#FFFFFF;stroke-width:4.9636;stroke-miterlimit:10;}
	.st15{fill:none;stroke:#76B5ED;stroke-width:5;stroke-miterlimit:10;}
	.st16{fill:#326CE5;}
	.st17{fill:#FBD2D3;}
	.st18{fill:none;stroke:#FBD2D3;stroke-width:30;stroke-miterlimit:10;}
	.st19{fill:#FFFFFF;stroke:#404041;stroke-width:2;stroke-miterlimit:10;}
	.st20{fill:#E1E4F9;}
	.st21{fill:#8EC2EA;}
	.st22{fill:#E6E7E8;stroke:#404041;stroke-width:2;stroke-miterlimit:10;}
	.st23{opacity:0.5;}
	.st24{fill:#CDDEFF;stroke:#404041;stroke-width:2;stroke-miterlimit:10;}
	.st25{fill:none;stroke:#717888;stroke-width:2;stroke-miterlimit:10;}
	.st26{fill:#717888;}
	.st27{fill:#FAFBFB;}
	.st28{fill:#CDDEFF;}
	.st29{fill:#D6F8ED;}
	.st30{fill:#FFFFFF;stroke:#717888;stroke-width:2;stroke-miterlimit:10;}
	.st31{fill:#FFE1B3;}
	.st32{fill:#BBBDBF;}
	.st33{fill:#C8B9DC;}
	.st34{fill:#FFE1B3;stroke:#717888;stroke-width:2;stroke-miterlimit:10;}
	.st35{fill:#FBD2D3;stroke:#717888;stroke-width:2;stroke-miterlimit:10;}
	.st36{fill:#EDC6C7;}
	.st37{fill:none;stroke:#717888;stroke-width:4;stroke-linecap:round;stroke-miterlimit:10;}
	.st38{fill:#CDDEFF;stroke:#717888;stroke-width:2;stroke-miterlimit:10;}
	.st39{fill:none;stroke:#717888;stroke-width:2;stroke-linejoin:round;stroke-miterlimit:10;}
	.st40{fill:#D6F8ED;stroke:#717888;stroke-width:2;stroke-miterlimit:10;}
	.st41{fill:#E6E7E8;stroke:#717888;stroke-width:2;stroke-miterlimit:10;}
	.st42{fill:#1E86D5;}
	.st43{fill:#232F3E;}
	.st44{fill:#FFE1B3;stroke:#404041;stroke-width:2;stroke-miterlimit:10;}
	.st45{fill:none;stroke:#404041;stroke-width:4;stroke-linecap:round;stroke-miterlimit:10;}
	.st46{fill:none;stroke:#404041;stroke-width:2;stroke-linejoin:round;stroke-miterlimit:10;}
	.st47{fill:#8EC2EA;stroke:#404041;stroke-width:2;stroke-miterlimit:10;}
	.st48{fill-rule:evenodd;clip-rule:evenodd;fill:#FFFFFF;}
	.st49{fill:none;stroke:#404041;stroke-width:2;stroke-miterlimit:10;stroke-dasharray:1.9017,3.8035;}
	.st50{fill:none;stroke:#404041;stroke-width:2;stroke-miterlimit:10;stroke-dasharray:2.0745,4.1489;}
	.st51{fill:none;stroke:#1E86D5;stroke-width:70;stroke-miterlimit:10;}
	.st52{fill:none;stroke:#404041;stroke-width:2;stroke-miterlimit:10;stroke-dasharray:2,4;}
	.st53{fill:none;stroke:#E6E7E8;stroke-width:2;stroke-miterlimit:10;}
	.st54{fill:none;stroke:#E6E7E8;stroke-width:2;stroke-linecap:round;stroke-miterlimit:10;}
	.st55{fill:none;stroke:#E6E7E8;stroke-width:2;stroke-linejoin:round;stroke-miterlimit:10;}
	.st56{fill:none;stroke:#E6E7E8;stroke-width:5;stroke-miterlimit:10;}
	.st57{fill:none;stroke:#FFFFFF;stroke-width:2;stroke-miterlimit:10;}
	.st58{fill:none;stroke:#404041;stroke-width:2;stroke-linecap:round;stroke-miterlimit:10;}
</style>
<g id="Layer_2">
</g>
<g id="Layer_1">
	<g>
		<g>
			<g>
				<line class="st2" x1="37.6" y1="13.65" x2="37.6" y2="373.48"/>
				<g>
					<polygon class="st3" points="29.42,20.28 30.89,21.64 37.6,14.42 44.32,21.64 45.78,20.28 37.6,11.48 					"/>
				</g>
			</g>
		</g>
		<g class="st23">
			<path class="st1" d="M199.89,422.26c4.47-8.09,7.02-17.39,7.02-27.29c0-31.2-25.29-56.49-56.49-56.49s-56.49,25.29-56.49,56.49
				c0,9.9,2.55,19.2,7.02,27.29H199.89z"/>
			<path class="st1" d="M488.88,422.26c6.65-12.02,10.44-25.85,10.44-40.56c0-46.36-37.59-83.95-83.95-83.95
				c-46.36,0-83.95,37.59-83.95,83.95c0,14.71,3.79,28.54,10.44,40.56H488.88z"/>
			<path class="st1" d="M587.15,422.26c6.65-12.02,10.44-25.85,10.44-40.56c0-46.36-37.59-83.95-83.95-83.95
				c-46.36,0-83.95,37.59-83.95,83.95c0,14.71,3.79,28.54,10.44,40.56H587.15z"/>
			<circle class="st1" cx="214.47" cy="270.54" r="76.18"/>
			<circle class="st1" cx="375.45" cy="242.59" r="95"/>
			<circle class="st1" cx="467.33" cy="195.84" r="37.3"/>
			<circle class="st1" cx="597.59" cy="358.23" r="37.3"/>
			<circle class="st1" cx="617.59" cy="323.23" r="13.18"/>
			<circle class="st1" cx="124.23" cy="341.38" r="13.18"/>
			<circle class="st1" cx="317.45" cy="164.06" r="13.18"/>
		</g>
		<polygon class="st21" points="495.82,85.43 416.31,90.46 430.99,112.54 327.44,181.4 241.82,181.4 72.98,294.67 87.87,316.75 
			249.97,208.03 335.49,208.03 445.74,134.72 460.42,156.8 		"/>
		<polygon class="st2" points="495.82,85.11 416.31,90.13 430.99,112.21 327.44,181.07 241.82,181.07 72.98,294.35 87.87,316.43 
			249.97,207.7 335.49,207.7 445.74,134.39 460.42,156.48 		"/>
		<line class="st2" x1="26.18" y1="421.48" x2="624.02" y2="421.48"/>
		<line class="st2" x1="88.12" y1="438.52" x2="590.77" y2="438.52"/>
		<polygon class="st42" points="579.04,288.73 543.64,217.36 528.96,239.44 328.46,106.12 234.84,106.12 66.02,218.58 80.78,240.75 
			242.9,132.76 320.42,132.76 514.21,261.62 499.53,283.7 		"/>
		<polygon class="st2" points="579.04,288.73 543.64,217.36 528.96,239.44 328.46,106.12 234.84,106.12 66.02,218.58 80.78,240.75 
			242.9,132.76 320.42,132.76 514.21,261.62 499.53,283.7 		"/>
		<g>
			<g>
				<line class="st2" x1="626.76" y1="362.9" x2="26.18" y2="362.9"/>
				<g>
					<polygon class="st3" points="620.13,354.72 618.77,356.19 625.99,362.9 618.77,369.62 620.13,371.08 628.93,362.9 					"/>
				</g>
			</g>
		</g>
		<g>
			<g>
				<g>
					<line class="st2" x1="270.21" y1="30.24" x2="275.21" y2="30.24"/>
					<line class="st2" x1="278.63" y1="30.24" x2="283.63" y2="30.24"/>
				</g>
			</g>
			<g>
				<g>
					<line class="st2" x1="273.56" y1="36.06" x2="276.06" y2="31.73"/>
					<line class="st2" x1="277.77" y1="28.76" x2="280.27" y2="24.43"/>
				</g>
			</g>
			<g>
				<g>
					<line class="st2" x1="280.27" y1="36.06" x2="277.77" y2="31.73"/>
					<line class="st2" x1="276.06" y1="28.76" x2="273.56" y2="24.43"/>
				</g>
			</g>
		</g>
		<g>
			<g>
				<g>
					<line class="st2" x1="398.08" y1="226.31" x2="403.08" y2="226.31"/>
					<line class="st2" x1="406.51" y1="226.31" x2="411.51" y2="226.31"/>
				</g>
			</g>
			<g>
				<g>
					<line class="st2" x1="401.44" y1="232.12" x2="403.94" y2="227.79"/>
					<line class="st2" x1="405.65" y1="224.82" x2="408.15" y2="220.49"/>
				</g>
			</g>
			<g>
				<g>
					<line class="st2" x1="408.15" y1="232.12" x2="405.65" y2="227.79"/>
					<line class="st2" x1="403.94" y1="224.82" x2="401.44" y2="220.49"/>
				</g>
			</g>
		</g>
		<g>
			<g>
				<g>
					<line class="st2" x1="62.24" y1="118.8" x2="67.24" y2="118.8"/>
					<line class="st2" x1="70.67" y1="118.8" x2="75.67" y2="118.8"/>
				</g>
			</g>
			<g>
				<g>
					<line class="st2" x1="65.6" y1="124.61" x2="68.1" y2="120.28"/>
					<line class="st2" x1="69.81" y1="117.32" x2="72.31" y2="112.99"/>
				</g>
			</g>
			<g>
				<g>
					<line class="st2" x1="72.31" y1="124.61" x2="69.81" y2="120.28"/>
					<line class="st2" x1="68.1" y1="117.32" x2="65.6" y2="112.99"/>
				</g>
			</g>
		</g>
		<g>
			<circle class="st31" cx="569.68" cy="405.27" r="16.18"/>
			<circle class="st2" cx="569.68" cy="405.27" r="16.18"/>
			<g>
				<path class="st3" d="M561.98,410.44c-0.42-0.6-0.74-1.23-0.97-1.89c-0.23-0.67-0.37-1.37-0.42-2.12l2.14-0.47
					c0.05,0.97,0.25,1.84,0.59,2.59c0.34,0.76,0.84,1.43,1.51,2.02c0.94,0.83,1.84,1.26,2.67,1.3c0.84,0.04,1.59-0.32,2.25-1.08
					l0.01-0.01c0.42-0.48,0.63-0.95,0.66-1.43c0.02-0.47-0.08-0.94-0.32-1.39c-0.23-0.45-0.58-0.97-1.04-1.57
					c-0.01-0.02-0.03-0.04-0.04-0.06c-0.02-0.02-0.03-0.04-0.04-0.06c-0.03-0.04-0.06-0.08-0.09-0.12s-0.07-0.09-0.1-0.13
					c-0.68-0.89-1.2-1.65-1.54-2.29c-0.34-0.64-0.48-1.35-0.42-2.14c0.06-0.79,0.46-1.62,1.22-2.48l0.01-0.01
					c0.75-0.85,1.54-1.43,2.38-1.72c0.84-0.29,1.72-0.31,2.63-0.05c0.91,0.26,1.84,0.81,2.78,1.63c0.43,0.37,0.81,0.79,1.14,1.25
					c0.33,0.46,0.62,0.97,0.86,1.52c0.24,0.55,0.44,1.14,0.58,1.78l-2.07,0.54c-0.16-0.79-0.39-1.48-0.7-2.07
					c-0.31-0.59-0.7-1.08-1.15-1.48c-0.89-0.78-1.74-1.17-2.55-1.19c-0.81-0.02-1.54,0.35-2.2,1.1l-0.01,0.01
					c-0.42,0.48-0.63,0.97-0.62,1.46s0.15,0.97,0.41,1.44c0.26,0.47,0.66,1.05,1.18,1.76c0.01,0.02,0.03,0.04,0.05,0.07
					c0.02,0.02,0.04,0.05,0.06,0.07c0.03,0.03,0.05,0.07,0.08,0.1c0.03,0.03,0.05,0.07,0.07,0.11c0.59,0.81,1.04,1.54,1.34,2.2
					c0.3,0.66,0.41,1.37,0.31,2.15c-0.09,0.78-0.5,1.58-1.23,2.41l-0.02,0.02c-0.73,0.84-1.52,1.39-2.36,1.66
					c-0.85,0.27-1.73,0.26-2.66-0.04c-0.93-0.3-1.88-0.87-2.86-1.72C562.9,411.59,562.39,411.03,561.98,410.44z M576.11,396.6
					l1.59,1.39l-1.82,2.08l-1.59-1.39L576.11,396.6z M563.59,410.92l1.59,1.39l-1.93,2.2l-1.59-1.39L563.59,410.92z"/>
			</g>
		</g>
		<g>
			<circle class="st31" cx="171.86" cy="211.28" r="16.18"/>
			<circle class="st2" cx="171.86" cy="211.28" r="16.18"/>
			<g>
				<path class="st3" d="M162.65,206.89c0.89-0.83,2.3-1.93,3.84-2.94c2.11-1.37,3.77-1.96,5.28-1.77c1.24,0.15,2.36,0.87,3.17,2.11
					c1.23,1.89,0.79,4.01-0.26,5.4l0.04,0.07c1.3-0.29,2.59,0.32,3.88,1.49c1.65,1.53,3.14,2.97,3.81,3.33l-2.76,1.8
					c-0.5-0.29-1.63-1.26-3.23-2.82c-1.66-1.64-2.75-1.8-4.3-0.85l-1.35,0.88l3.92,6.02l-2.65,1.73L162.65,206.89z M169.52,211.63
					l1.59-1.03c1.8-1.17,2.31-2.87,1.36-4.32c-1.05-1.61-2.66-1.61-4.4-0.48c-0.85,0.55-1.35,0.97-1.57,1.21L169.52,211.63z"/>
			</g>
		</g>
		<g>
			<circle class="st31" cx="348.9" cy="230.87" r="16.18"/>
			<circle class="st2" cx="348.9" cy="230.87" r="16.18"/>
			<g>
				<path class="st3" d="M347.58,220.78c1.17,0.3,2.87,0.9,4.54,1.66c2.29,1.04,3.68,2.12,4.33,3.5c0.54,1.13,0.54,2.46-0.08,3.81
					c-0.93,2.05-2.96,2.82-4.69,2.68l-0.03,0.07c0.94,0.94,1.12,2.36,0.83,4.08c-0.4,2.21-0.81,4.24-0.76,5.01l-3-1.36
					c-0.02-0.58,0.19-2.05,0.64-4.24c0.49-2.28,0.04-3.28-1.59-4.08l-1.46-0.66l-2.96,6.54l-2.88-1.31L347.58,220.78z
					 M347.27,229.12l1.72,0.78c1.96,0.89,3.66,0.41,4.38-1.18c0.79-1.75-0.07-3.11-1.96-3.96c-0.92-0.42-1.54-0.61-1.86-0.67
					L347.27,229.12z"/>
			</g>
		</g>
		<g>
			<rect x="235.67" y="392.09" class="st32" width="51.64" height="5.53"/>
			<path class="st1" d="M165.16,391.68h192.66c3.82,0,6.92-3.1,6.92-6.92V248.95c0-2.63-2.13-4.76-4.76-4.76H163
				c-2.63,0-4.76,2.13-4.76,4.76v135.81C158.24,388.58,161.34,391.68,165.16,391.68z"/>
			<path class="st2" d="M165.16,391.68h192.66c3.82,0,6.92-3.1,6.92-6.92V248.95c0-2.63-2.13-4.76-4.76-4.76H163
				c-2.63,0-4.76,2.13-4.76,4.76v135.81C158.24,388.58,161.34,391.68,165.16,391.68z"/>
			<rect x="163.97" y="249.87" class="st0" width="195.03" height="117.23"/>
			<rect x="163.97" y="249.87" class="st1" width="195.03" height="7.02"/>
			<rect x="173.51" y="263.97" class="st21" width="12.71" height="2.41"/>
			<rect x="173.51" y="268.33" class="st21" width="12.71" height="2.41"/>
			<rect x="173.51" y="272.69" class="st21" width="12.71" height="2.41"/>
			<path class="st2" d="M296.53,418.96c0,1.29-0.99,2.52-2.51,2.52h-65.08c-1.52,0-2.51-1.24-2.51-2.52c0-0.65,0.25-1.32,0.83-1.83
				l0.67-0.61c2.29-2.08,4.14-4.57,5.44-7.32c1.49-3.13,2.29-6.59,2.29-10.13v-7.39h51.64v7.39c0,3.54,0.79,7,2.29,10.13
				c1.3,2.75,3.14,5.24,5.43,7.32l0.67,0.61C296.28,417.64,296.53,418.31,296.53,418.96z"/>
			<rect x="188.36" y="345.28" class="st42" width="21.82" height="21.82"/>
			<rect x="218.48" y="324.69" class="st42" width="21.82" height="42.4"/>
			<rect x="248.59" y="305.95" class="st42" width="21.82" height="61.15"/>
			<rect x="278.7" y="286.9" class="st42" width="21.82" height="80.2"/>
			<rect x="308.82" y="263.24" class="st42" width="21.82" height="103.86"/>
			<rect x="163.97" y="249.87" class="st2" width="195.03" height="117.23"/>
			<path class="st1" d="M209.25,292.81l-9.44,5.45c3.8,5.93,10.34,9.94,17.85,10.23v-10.92
				C214.2,297.31,211.16,295.48,209.25,292.81z M219.42,263.97v10.9c5.87,0.44,10.5,5.36,10.5,11.35c0,5.93-4.53,10.8-10.33,11.33
				v10.93c11.82-0.55,21.23-10.3,21.23-22.26C240.83,274.21,231.32,264.42,219.42,263.97z M196.26,286.23
				c0,3.75,0.92,7.27,2.57,10.37l9.43-5.45c-0.71-1.49-1.11-3.16-1.11-4.92c0-5.95,4.55-10.82,10.34-11.34v-10.92
				C205.68,264.52,196.26,274.27,196.26,286.23z"/>
			<line class="st2" x1="293.31" y1="414.72" x2="251.74" y2="414.72"/>
			<line class="st2" x1="289.99" y1="410.32" x2="239.99" y2="410.32"/>
		</g>
		<g>
			<polygon class="st44" points="463.34,250.67 477.44,251.62 487.63,270.63 480.63,282.9 422.08,314.31 404.8,282.08 			"/>
			<g>
				<path class="st3" d="M435.11,292.93c-0.29,0.41-1.06,1.1-2.22,1.71c-3.28,1.76-6.07,0.63-7.52-2.08
					c-1.74-3.24-0.39-6.28,2.48-7.82c1.11-0.6,2.08-0.82,2.56-0.83l0.48,1.94c-0.53,0.05-1.23,0.21-1.99,0.62
					c-1.7,0.91-2.48,2.65-1.34,4.76c1.02,1.9,2.79,2.49,4.7,1.47c0.65-0.35,1.29-0.87,1.62-1.27L435.11,292.93z"/>
				<path class="st3" d="M442.33,283.16c1.67,3.11,0.79,6.01-1.98,7.5c-2.82,1.51-5.6,0.27-7.05-2.43
					c-1.53-2.84-0.85-5.94,1.95-7.45C438.17,279.22,440.93,280.55,442.33,283.16z M435.55,286.97c1,1.86,2.57,2.7,4.01,1.93
					c1.45-0.78,1.54-2.6,0.55-4.45c-0.91-1.7-2.52-2.73-3.99-1.94C434.66,283.29,434.56,285.12,435.55,286.97z"/>
				<path class="st3" d="M445.23,285c0.73-0.01,1.78-0.19,2.7-0.69c0.99-0.53,1.29-1.22,0.96-1.84c-0.32-0.59-0.95-0.69-2.31-0.48
					c-1.87,0.3-3.37-0.02-4.11-1.4c-0.87-1.62-0.18-3.58,2.06-4.78c1.07-0.57,1.98-0.77,2.68-0.82l0.45,1.99
					c-0.48,0.02-1.3,0.12-2.23,0.61c-0.93,0.5-1.15,1.16-0.89,1.66c0.33,0.61,1,0.58,2.48,0.39c2.01-0.28,3.27,0.17,3.98,1.51
					c0.85,1.59,0.35,3.6-2.25,5c-1.08,0.58-2.31,0.87-3,0.87L445.23,285z"/>
				<path class="st3" d="M451.65,274.5l-2.55,1.37l-0.97-1.8l7.29-3.91l0.97,1.8l-2.59,1.39l4.12,7.69l-2.15,1.16L451.65,274.5z"/>
			</g>
			<circle class="st19" cx="473.17" cy="266.15" r="4.39"/>
		</g>
		<g>
			<polygon class="st44" points="398.92,53.86 410.89,61.36 410.89,82.93 398.92,90.43 332.48,90.43 332.48,53.86 			"/>
			<g>
				<path class="st3" d="M345.07,77.34l-3.45-10.77h2.67l1.31,4.55c0.37,1.28,0.7,2.51,0.96,3.85h0.05c0.27-1.29,0.61-2.57,0.97-3.8
					l1.37-4.6h2.59l-3.63,10.77H345.07z"/>
				<path class="st3" d="M354.34,74.57l-0.77,2.76h-2.52l3.29-10.77h3.2l3.34,10.77h-2.62l-0.83-2.76H354.34z M357.07,72.75
					l-0.67-2.29c-0.19-0.64-0.38-1.44-0.54-2.08h-0.03c-0.16,0.64-0.32,1.45-0.5,2.08l-0.64,2.29H357.07z"/>
				<path class="st3" d="M362.31,66.57h2.44v8.72h4.28v2.04h-6.73V66.57z"/>
				<path class="st3" d="M372.41,66.57v6.2c0,1.85,0.7,2.8,1.95,2.8c1.28,0,1.98-0.89,1.98-2.8v-6.2h2.43v6.04
					c0,3.32-1.68,4.9-4.49,4.9c-2.72,0-4.31-1.5-4.31-4.94v-6.01H372.41z"/>
				<path class="st3" d="M387.29,72.78h-3.96v2.56h4.42v2h-6.87V66.57h6.65v2h-4.2v2.24h3.96V72.78z"/>
			</g>
			<circle class="st19" cx="400.27" cy="72.15" r="4.39"/>
		</g>
		<path class="st2" d="M473.98,264.26c3.86-0.4,7.73-1.56,10.83-3.9c3.1-2.34,5.35-5.97,5.47-9.85"/>
		<path class="st2" d="M402.1,73.26c5.47-0.13,11.07,0.22,16.11,2.33s9.49,6.23,10.84,11.53"/>
		<g>
			<path class="st2" d="M517.99,377.32c3.15-2.14,6.9-3.38,10.71-3.54c1.67-0.07,3.4,0.08,4.86,0.87s2.61,2.35,2.52,4.01
				c-0.09,1.67-1.72,3.2-3.35,2.86c-1.77-0.37-2.59-2.65-1.98-4.35c0.61-1.7,2.19-2.86,3.79-3.69c2.95-1.53,6.29-2.3,9.61-2.22"/>
			<path class="st0" d="M524.22,388.08c-0.13,1.36-6.7,28.4-7.7,32.53c-0.07,0.28-0.14,0.56-0.2,0.85h-15.49l-1.35-6.4
				c-4.38,1.38-9.15,2.14-14.14,2.14c-3.91,0-11.31-0.46-14.88-1.34l-3.2,5.6H455.9l-1.31-15.83c-2.88-2.59-5.3-5.41-6.91-8.4
				l-10.46-3.27l-1.55-9.86l11.48-6.03c0.73-2.58,1.85-5.03,3.3-7.33l-8.04-9.66l0.82-2.39c0,0,15.52,1.67,17.35,1.88
				c6.74-4.48,15.36-7.16,24.75-7.16c5.3,0,10.61,0.86,15.62,2.63c4.61,1.63,8.96,4.03,12.69,7.2c3.45,2.93,6.37,6.54,8.3,10.65
				C524.07,378.43,524.69,383.24,524.22,388.08z"/>
			<path class="st1" d="M510.16,407.31c-8.48,1.6-17.11,3.78-25.78,3.61c-7.81-0.16-15.82-0.77-23.15-3.6
				c-2.2-0.31-4.4-0.66-6.58-1.07l1.26,15.21h11.36l3.2-5.6c3.57,0.87,10.96,1.34,14.88,1.34c4.98,0,9.75-0.76,14.14-2.14l1.35,6.4
				h15.49c0.07-0.28,0.14-0.56,0.2-0.85c0.46-1.9,2.1-8.68,3.76-15.56c-0.74,0.14-1.47,0.27-2.2,0.4
				C515.45,406.2,512.78,406.81,510.16,407.31z"/>
			<path class="st2" d="M524.22,388.08c-0.13,1.36-6.7,28.4-7.7,32.53c-0.07,0.28-0.14,0.56-0.2,0.85h-15.49l-1.35-6.4
				c-4.38,1.38-9.15,2.14-14.14,2.14c-3.91,0-11.31-0.46-14.88-1.34l-3.2,5.6H455.9l-1.31-15.83c-2.88-2.59-5.3-5.41-6.91-8.4
				l-10.46-3.27l-1.55-9.86l11.48-6.03c0.73-2.58,1.85-5.03,3.3-7.33l-8.04-9.66l0.82-2.39c0,0,15.52,1.67,17.35,1.88
				c6.74-4.48,15.36-7.16,24.75-7.16c5.3,0,10.61,0.86,15.62,2.63c4.61,1.63,8.96,4.03,12.69,7.2c3.45,2.93,6.37,6.54,8.3,10.65
				C524.07,378.43,524.69,383.24,524.22,388.08z"/>
			<path class="st2" d="M524.22,388.08c-0.13,1.36-6.7,28.4-7.7,32.53c-0.07,0.28-0.14,0.56-0.2,0.85h-15.49l-1.35-6.4
				c-4.38,1.38-9.15,2.14-14.14,2.14c-3.91,0-11.31-0.46-14.88-1.34l-3.2,5.6H455.9l-1.31-15.83c-2.88-2.59-5.3-5.41-6.91-8.4
				l-10.46-3.27l-1.55-9.86l11.48-6.03c0.73-2.58,1.85-5.03,3.3-7.33l-8.04-9.66l0.82-2.39c0,0,15.52,1.67,17.35,1.88
				c6.74-4.48,15.36-7.16,24.75-7.16c5.3,0,10.61,0.86,15.62,2.63c4.61,1.63,8.96,4.03,12.69,7.2c3.45,2.93,6.37,6.54,8.3,10.65
				C524.07,378.43,524.69,383.24,524.22,388.08z"/>
			<line class="st2" x1="522.75" y1="394.82" x2="522.75" y2="394.8"/>
			<circle class="st19" cx="454.66" cy="380.14" r="2.89"/>
			<path class="st45" d="M498.11,360.92c-8.19-3.97-17.63-3.97-25.82,0"/>
		</g>
		<polygon class="st46" points="56.24,248.51 50.8,257.93 61.67,257.93 		"/>
		<g>
			<polygon class="st46" points="458.16,45.24 460.97,55.74 468.66,48.06 			"/>
		</g>
		<g>
			<circle class="st2" cx="590.77" cy="73.05" r="3.81"/>
		</g>
		<circle class="st2" cx="390.94" cy="310.05" r="3.81"/>
		<g>
			<path class="st47" d="M50.08,338.93c0,24.7,10.98,44.73,10.98,44.73s10.98-20.03,10.98-44.73c0-24.7-10.98-44.73-10.98-44.73
				S50.08,314.23,50.08,338.93z"/>
			<path class="st47" d="M35.22,356.71c10.01,17.34,25.84,26.95,25.84,26.95s-0.41-18.51-10.42-35.85S24.8,320.86,24.8,320.86
				S25.21,339.37,35.22,356.71z"/>
			<path class="st47" d="M34.95,376.25c12.77,7.37,26.4,7.67,26.4,7.67s-7.07-11.65-19.84-19.03s-26.4-7.67-26.4-7.67
				S22.18,368.88,34.95,376.25z"/>
			<path class="st47" d="M72.71,348.02c-10.01,17.34-10.42,35.85-10.42,35.85s15.83-9.61,25.84-26.95s10.42-35.85,10.42-35.85
				S82.72,330.68,72.71,348.02z"/>
			<path class="st47" d="M82.81,365.64c-12.77,7.37-19.84,19.03-19.84,19.03s13.63-0.3,26.4-7.67
				c12.77-7.37,19.84-19.03,19.84-19.03S95.58,358.27,82.81,365.64z"/>
			<polygon class="st22" points="83.48,421.48 38.64,421.48 46.38,383.78 75.74,383.78 			"/>
		</g>
		<g>
			<path class="st31" d="M472.14,361.37c4.28-1.92,8.91-3.01,13.61-3.01c4.61,0,8.93,0.91,12.86,2.55
				c2.88-4.28,3.68-9.86,1.64-15.02c-3.29-8.31-12.69-12.37-21-9.08c-8.31,3.29-12.37,12.69-9.08,21
				C470.67,359.11,471.35,360.29,472.14,361.37z"/>
			<g>
				<path class="st3" d="M471.2,361.8c0.62-0.3,1.25-0.57,1.88-0.84c-0.8-1.06-1.48-2.23-1.99-3.53c-3.08-7.78,0.74-16.62,8.52-19.7
					c7.79-3.08,16.62,0.74,19.7,8.52c1.94,4.9,1.14,10.22-1.66,14.26c0.64,0.24,1.26,0.51,1.87,0.79
					c2.98-4.52,3.79-10.38,1.65-15.78c-3.49-8.81-13.49-13.13-22.3-9.65c-8.81,3.49-13.13,13.49-9.65,22.3
					C469.75,359.49,470.42,360.7,471.2,361.8z"/>
			</g>
			<g>
				<path class="st3" d="M478.96,350.5c0.42,1.06,0.97,1.8,1.65,2.21s1.38,0.62,2.1,0.6c0.72-0.01,1.64-0.12,2.74-0.32
					c0.06-0.01,0.11-0.02,0.16-0.03s0.1-0.02,0.15-0.03c0.03,0,0.05-0.01,0.07-0.01c0.02,0,0.05-0.01,0.07-0.01
					c0.74-0.14,1.36-0.2,1.87-0.21c0.51,0,0.97,0.12,1.38,0.35c0.41,0.24,0.73,0.65,0.97,1.24l0,0.01c0.37,0.93,0.35,1.76-0.07,2.49
					c-0.38,0.65-1.07,1.2-2.06,1.64c1.08,0.07,2.15,0.19,3.2,0.36c0.02-0.02,0.05-0.04,0.07-0.07c0.69-0.69,1.11-1.47,1.25-2.35
					c0.14-0.88,0.01-1.83-0.4-2.86l-0.01-0.02c-0.41-1.02-0.93-1.76-1.58-2.19c-0.65-0.44-1.33-0.68-2.06-0.71
					c-0.72-0.03-1.58,0.03-2.57,0.19c-0.04,0-0.09,0-0.13,0.01c-0.04,0.01-0.08,0.01-0.12,0.02c-0.03,0-0.06,0.01-0.09,0.02
					c-0.03,0.01-0.05,0.01-0.08,0.01c-0.87,0.14-1.57,0.22-2.1,0.24c-0.54,0.02-1.03-0.08-1.47-0.29c-0.44-0.22-0.78-0.62-1.02-1.22
					l0-0.01c-0.37-0.93-0.36-1.75,0.03-2.46c0.38-0.71,1.12-1.29,2.22-1.72c0.57-0.22,1.18-0.34,1.85-0.35
					c0.67-0.01,1.39,0.1,2.17,0.32l0.47-2.09c-0.63-0.16-1.25-0.26-1.85-0.29c-0.6-0.04-1.18-0.01-1.75,0.07
					c-0.31,0.05-0.61,0.11-0.91,0.2l-0.74-1.87l-1.97,0.78l0.76,1.92c-0.6,0.34-1.11,0.71-1.51,1.14c-0.65,0.69-1.04,1.47-1.16,2.36
					c-0.12,0.89,0.02,1.85,0.44,2.91L478.96,350.5z"/>
			</g>
		</g>
		<circle class="st1" cx="131.75" cy="132.71" r="3.67"/>
		<circle class="st1" cx="251.74" cy="67.18" r="3.67"/>
		<circle class="st1" cx="592.6" cy="200.77" r="3.67"/>
		<g>
			<line class="st2" x1="542.98" y1="324.69" x2="551.76" y2="324.69"/>
			<line class="st2" x1="547.37" y1="329.09" x2="547.37" y2="320.3"/>
		</g>
		<g>
			<line class="st2" x1="584.54" y1="24.43" x2="593.32" y2="24.43"/>
			<line class="st2" x1="588.93" y1="28.83" x2="588.93" y2="20.04"/>
		</g>
		<g>
			<line class="st2" x1="600.02" y1="250.9" x2="608.8" y2="250.9"/>
			<line class="st2" x1="604.41" y1="255.3" x2="604.41" y2="246.51"/>
		</g>
		<g>
			<line class="st2" x1="268.13" y1="154.85" x2="276.92" y2="154.85"/>
			<line class="st2" x1="272.52" y1="159.25" x2="272.52" y2="150.46"/>
		</g>
		<rect x="68.95" y="157.61" class="st1" width="9.51" height="9.51"/>
		<rect x="79.29" y="33.06" class="st2" width="9.51" height="9.51"/>
		
			<rect x="379.35" y="18.48" transform="matrix(-1.147710e-12 1 -1 -1.147710e-12 407.3407 -360.8708)" class="st1" width="9.51" height="9.51"/>
		<g id="Working_2_">
			<rect x="508.64" y="32.18" class="st1" width="35" height="35"/>
			<path class="st0" d="M520.02,48.35c-0.01,0.28,0.03,0.56,0.11,0.83c0.08,0.23,0.18,0.46,0.3,0.67c0.04,0.06,0.07,0.13,0.07,0.21
				c-0.01,0.12-0.08,0.22-0.18,0.28l-0.59,0.39c-0.07,0.05-0.15,0.08-0.24,0.08c-0.11,0-0.21-0.05-0.28-0.13
				c-0.13-0.13-0.24-0.27-0.34-0.43c-0.09-0.16-0.18-0.34-0.28-0.55c-0.66,0.83-1.68,1.31-2.74,1.29c-0.68,0.04-1.36-0.2-1.86-0.67
				c-0.47-0.47-0.72-1.12-0.68-1.79c-0.02-0.73,0.28-1.44,0.84-1.92c0.65-0.51,1.46-0.76,2.29-0.72c0.33,0,0.67,0.02,1,0.07
				c0.35,0.05,0.7,0.12,1.07,0.2v-0.68c0.05-0.54-0.1-1.07-0.44-1.49c-0.43-0.33-0.98-0.49-1.52-0.43c-0.34,0-0.67,0.04-1,0.12
				c-0.34,0.08-0.68,0.19-1,0.32l-0.33,0.12h-0.14c-0.14,0-0.2-0.1-0.2-0.29v-0.46c-0.01-0.11,0.01-0.22,0.06-0.32
				c0.07-0.09,0.17-0.15,0.27-0.2c0.37-0.18,0.77-0.32,1.17-0.42c0.47-0.12,0.96-0.18,1.45-0.18c0.88-0.08,1.76,0.2,2.44,0.76
				c0.57,0.62,0.85,1.45,0.77,2.29L520.02,48.35z M516.24,49.77c0.34,0,0.68-0.06,1-0.17c0.34-0.12,0.65-0.32,0.88-0.6
				c0.15-0.17,0.26-0.37,0.32-0.59c0.06-0.27,0.09-0.54,0.09-0.81v-0.42c-0.29-0.06-0.59-0.1-0.89-0.13c-0.3,0-0.59,0-0.88,0
				c-0.49-0.04-0.98,0.09-1.38,0.37c-0.32,0.27-0.49,0.67-0.46,1.08c-0.03,0.37,0.09,0.73,0.34,1
				C515.54,49.72,515.89,49.81,516.24,49.77z M523.73,50.77c-0.13,0.01-0.25-0.02-0.36-0.09c-0.1-0.1-0.17-0.23-0.2-0.37l-2.18-7.2
				c-0.04-0.12-0.07-0.25-0.08-0.38c0-0.15,0.07-0.23,0.22-0.23h0.92c0.13-0.01,0.25,0.02,0.36,0.09c0.1,0.1,0.16,0.23,0.19,0.37
				l1.57,6.22l1.47-6.21c0.02-0.14,0.08-0.27,0.18-0.37c0.11-0.07,0.24-0.1,0.37-0.09h0.75c0.13-0.01,0.27,0.02,0.38,0.09
				c0.09,0.1,0.16,0.23,0.18,0.37l1.45,6.21l1.61-6.24c0.03-0.14,0.09-0.27,0.19-0.37c0.11-0.07,0.23-0.1,0.36-0.09h0.87
				c0.12-0.01,0.22,0.07,0.23,0.19c0,0.01,0,0.03,0,0.04c0,0.05,0,0.1,0,0.15c0,0,0,0.13-0.06,0.23l-2.26,7.2
				c-0.03,0.14-0.09,0.27-0.19,0.37c-0.11,0.07-0.23,0.1-0.36,0.09h-0.8c-0.13,0.01-0.26-0.02-0.37-0.1
				c-0.1-0.1-0.16-0.23-0.18-0.37l-1.45-6l-1.44,6c-0.02,0.14-0.08,0.27-0.18,0.37c-0.11,0.08-0.24,0.11-0.37,0.1L523.73,50.77z
				 M535.73,51.01c-0.48,0-0.97-0.05-1.44-0.16c-0.37-0.07-0.73-0.2-1.07-0.37c-0.12-0.06-0.22-0.15-0.29-0.26
				c-0.04-0.08-0.06-0.18-0.06-0.27v-0.47c0-0.19,0.07-0.29,0.21-0.29c0.06-0.01,0.12-0.01,0.18,0l0.23,0.1
				c0.32,0.14,0.66,0.25,1,0.32c0.36,0.08,0.74,0.12,1.11,0.12c0.47,0.03,0.95-0.08,1.36-0.31c0.31-0.19,0.49-0.52,0.48-0.88
				c0.01-0.24-0.08-0.48-0.25-0.65c-0.27-0.23-0.59-0.4-0.94-0.49l-1.35-0.43c-0.58-0.15-1.11-0.48-1.49-0.94
				c-0.3-0.39-0.47-0.87-0.47-1.36c-0.01-0.35,0.08-0.69,0.25-1c0.17-0.3,0.4-0.56,0.67-0.77c0.3-0.22,0.64-0.38,1-0.48
				c0.38-0.11,0.78-0.16,1.18-0.16c0.21-0.01,0.41-0.01,0.62,0l0.61,0.1l0.53,0.15l0.39,0.16c0.1,0.06,0.2,0.14,0.28,0.23
				c0.06,0.09,0.08,0.2,0.08,0.31v0.44c0,0.2-0.07,0.3-0.21,0.3c-0.13-0.01-0.25-0.06-0.36-0.12c-0.57-0.25-1.18-0.37-1.8-0.36
				c-0.43-0.02-0.86,0.07-1.24,0.26c-0.29,0.18-0.46,0.5-0.44,0.84c0,0.25,0.1,0.49,0.28,0.66c0.3,0.24,0.64,0.41,1,0.51l1.32,0.42
				c0.56,0.15,1.06,0.46,1.44,0.9c0.29,0.38,0.44,0.84,0.43,1.31c0.01,0.37-0.08,0.74-0.24,1.08c-0.16,0.32-0.39,0.6-0.68,0.82
				c-0.3,0.24-0.64,0.42-1,0.53c-0.44,0.14-0.89,0.21-1.35,0.22L535.73,51.01z"/>
			<path class="st48" d="M537.46,55.61c-3.35,2.27-7.3,3.48-11.35,3.47c-5.12,0.03-10.06-1.86-13.86-5.28
				c-0.29-0.26,0-0.62,0.32-0.42c4.22,2.42,9,3.69,13.86,3.68c3.63-0.01,7.23-0.75,10.58-2.16
				C537.53,54.68,537.97,55.24,537.46,55.61z"/>
			<path class="st48" d="M538.74,54.18c-0.4-0.51-2.6-0.24-3.59-0.12c-0.3,0-0.34-0.23-0.07-0.42c1.75-1.23,4.63-0.88,5-0.46
				c0.37,0.42-0.09,3.3-1.74,4.68c-0.25,0.21-0.49,0.09-0.38-0.18C538.3,56.73,539.13,54.66,538.74,54.18z"/>
		</g>
		<g>
			<path class="st1" d="M574.02,140.42c-0.06-0.01-0.13-0.02-0.19-0.01c-0.11,0.01-0.22,0.03-0.32,0.08
				c-0.41,0.2-0.59,0.68-0.41,1.09l-0.01,0.01l1.93,4.66c1.85-1.18,3.25-2.94,3.98-5l-4.97-0.84L574.02,140.42z M566.29,141.08
				c-0.09-0.38-0.42-0.65-0.81-0.65c-0.06,0-0.11,0-0.17,0.01l-0.01-0.01l-4.93,0.84c0.74,2.05,2.13,3.79,3.97,4.96l1.91-4.61
				l-0.01-0.02C566.31,141.44,566.33,141.25,566.29,141.08z M570.41,142.89c-0.22-0.41-0.73-0.56-1.14-0.34
				c-0.15,0.08-0.27,0.2-0.34,0.35h0l-2.42,4.38c1.73,0.59,3.6,0.69,5.39,0.28c0.33-0.08,0.65-0.17,0.97-0.27l-2.43-4.39
				L570.41,142.89z M578.08,132.71l-3.73,3.34l0,0.01c-0.35,0.31-0.39,0.84-0.08,1.19c0.11,0.12,0.25,0.21,0.41,0.26l0,0.02
				l4.83,1.39C579.73,136.75,579.22,134.57,578.08,132.71L578.08,132.71z M571.16,133.09c0.02,0.46,0.42,0.82,0.88,0.8
				c0.16-0.01,0.32-0.06,0.46-0.16l0.01,0.01l4.08-2.89c-1.55-1.52-3.56-2.49-5.72-2.76L571.16,133.09L571.16,133.09z
				 M566.84,133.75c0.38,0.27,0.9,0.19,1.18-0.19c0.1-0.13,0.15-0.29,0.16-0.46l0.02-0.01l0.28-5.01c-0.34,0.04-0.68,0.1-1.02,0.18
				c-1.79,0.4-3.43,1.3-4.73,2.58L566.84,133.75L566.84,133.75z M564.65,137.53c0.45-0.12,0.71-0.58,0.59-1.03
				c-0.04-0.16-0.13-0.3-0.26-0.41l0-0.02l-3.75-3.35c-1.14,1.86-1.63,4.05-1.39,6.22l4.8-1.39L564.65,137.53z M568.29,139
				l1.38,0.66l1.38-0.66l0.34-1.49l-0.95-1.19h-1.54l-0.96,1.19L568.29,139z"/>
			<path class="st1" d="M592.53,141.94l-3.94-17.11c-0.21-0.9-0.82-1.65-1.65-2.05l-15.95-7.61c-0.84-0.4-1.81-0.4-2.65,0
				l-15.94,7.62c-0.83,0.4-1.44,1.15-1.65,2.05l-3.93,17.11c-0.1,0.43-0.1,0.88,0,1.31c0.03,0.13,0.07,0.26,0.11,0.39
				c0.08,0.22,0.18,0.42,0.3,0.62c0.05,0.08,0.11,0.16,0.17,0.24l11.04,13.72c0.05,0.06,0.1,0.11,0.15,0.17
				c0.17,0.18,0.37,0.35,0.58,0.48c0.27,0.17,0.56,0.3,0.87,0.38c0.25,0.07,0.51,0.11,0.78,0.11H561l17.53,0
				c0.11,0,0.21-0.01,0.32-0.02c0.15-0.02,0.3-0.05,0.45-0.09c0.11-0.03,0.21-0.06,0.31-0.1c0.08-0.03,0.16-0.06,0.24-0.1
				c0.12-0.06,0.23-0.12,0.33-0.19c0.28-0.17,0.52-0.39,0.73-0.65l0.34-0.42l10.7-13.31c0.21-0.26,0.37-0.55,0.48-0.86
				c0.05-0.13,0.08-0.26,0.11-0.39C592.63,142.82,592.63,142.37,592.53,141.94L592.53,141.94z M575.99,148.59
				c0.04,0.13,0.1,0.26,0.16,0.39c-0.1,0.17-0.12,0.37-0.07,0.56c0.23,0.53,0.52,1.04,0.85,1.52c0.19,0.24,0.36,0.5,0.51,0.76
				c0.04,0.07,0.09,0.18,0.13,0.26c0.27,0.45,0.12,1.04-0.33,1.32s-1.04,0.12-1.32-0.33c-0.03-0.05-0.06-0.11-0.08-0.17
				c-0.04-0.07-0.09-0.17-0.12-0.24c-0.11-0.29-0.2-0.58-0.28-0.87c-0.17-0.56-0.38-1.09-0.65-1.6c-0.12-0.16-0.29-0.26-0.49-0.3
				c-0.03-0.05-0.14-0.26-0.2-0.37c-2.84,1.08-5.97,1.07-8.81-0.02l-0.22,0.39c-0.15,0.02-0.3,0.09-0.41,0.2
				c-0.33,0.53-0.57,1.11-0.74,1.71c-0.07,0.3-0.17,0.59-0.28,0.87c-0.03,0.07-0.08,0.17-0.12,0.24v0l0,0
				c-0.18,0.5-0.73,0.76-1.22,0.58c-0.5-0.18-0.76-0.73-0.58-1.22c0.02-0.06,0.05-0.12,0.08-0.17c0.04-0.08,0.08-0.19,0.12-0.26
				c0.16-0.26,0.33-0.52,0.51-0.76c0.34-0.49,0.63-1.01,0.86-1.55c0.03-0.18,0-0.37-0.09-0.54l0.17-0.42
				c-2.61-1.54-4.57-3.99-5.5-6.87l-0.42,0.07c-0.16-0.11-0.35-0.18-0.55-0.19c-0.57,0.11-1.13,0.27-1.66,0.49
				c-0.28,0.13-0.56,0.23-0.86,0.33c-0.07,0.02-0.17,0.04-0.25,0.06c-0.01,0-0.01,0-0.02,0.01c0,0-0.01,0-0.01,0
				c-0.5,0.17-1.04-0.11-1.21-0.61c-0.17-0.5,0.11-1.04,0.61-1.21c0.06-0.02,0.12-0.03,0.17-0.04l0.01,0l0.01,0
				c0.08-0.02,0.18-0.05,0.25-0.06c0.3-0.04,0.61-0.07,0.92-0.07c0.58-0.04,1.15-0.13,1.71-0.28c0.17-0.11,0.31-0.25,0.41-0.41
				l0.4-0.12c-0.43-3.01,0.26-6.08,1.95-8.61l-0.31-0.27c-0.01-0.2-0.08-0.39-0.19-0.55c-0.44-0.38-0.91-0.71-1.42-1
				c-0.27-0.14-0.54-0.29-0.79-0.46c-0.06-0.04-0.13-0.11-0.2-0.16l-0.01-0.01c-0.45-0.32-0.56-0.95-0.23-1.41
				c0.19-0.23,0.47-0.35,0.76-0.34c0.24,0.01,0.48,0.1,0.67,0.25c0.06,0.05,0.15,0.12,0.21,0.17c0.22,0.21,0.43,0.43,0.63,0.67
				c0.39,0.43,0.82,0.82,1.29,1.16c0.17,0.09,0.38,0.11,0.57,0.05c0.11,0.08,0.23,0.16,0.34,0.24c1.68-1.78,3.85-3.02,6.24-3.56
				c0.57-0.13,1.14-0.22,1.73-0.27l0.02-0.4c0.15-0.13,0.26-0.3,0.31-0.49c0.02-0.58-0.01-1.16-0.11-1.73
				c-0.06-0.3-0.1-0.6-0.13-0.91c0-0.07,0-0.17,0-0.24c0-0.01,0-0.02,0-0.03c-0.05-0.53,0.33-1,0.86-1.05
				c0.53-0.05,1,0.33,1.05,0.86c0.01,0.06,0.01,0.13,0,0.19c0,0.08,0,0.19,0,0.27c-0.03,0.3-0.07,0.61-0.13,0.91
				c-0.09,0.57-0.13,1.15-0.11,1.73c0.04,0.19,0.15,0.36,0.31,0.48c0,0.07,0.01,0.3,0.02,0.43c3.02,0.27,5.83,1.63,7.92,3.83
				l0.36-0.26c0.2,0.03,0.4,0.01,0.58-0.06c0.47-0.35,0.9-0.74,1.29-1.16c0.2-0.23,0.41-0.46,0.63-0.67
				c0.06-0.05,0.15-0.12,0.21-0.17c0.38-0.37,0.98-0.37,1.36,0.01c0.37,0.38,0.37,0.98-0.01,1.36c-0.05,0.05-0.1,0.09-0.16,0.13
				c-0.06,0.05-0.15,0.12-0.21,0.17c-0.26,0.17-0.52,0.32-0.79,0.46c-0.5,0.29-0.98,0.62-1.42,1c-0.13,0.15-0.19,0.34-0.18,0.54
				c-0.05,0.05-0.24,0.21-0.34,0.3c1.69,2.52,2.4,5.58,1.99,8.59l0.39,0.11c0.1,0.17,0.24,0.32,0.41,0.41
				c0.56,0.15,1.13,0.24,1.71,0.28c0.31,0.01,0.61,0.03,0.91,0.07c0.08,0.01,0.2,0.05,0.28,0.07c0.52,0.07,0.89,0.55,0.82,1.07
				c-0.07,0.52-0.55,0.89-1.07,0.82c-0.06-0.01-0.12-0.02-0.18-0.04l-0.01,0c-0.01,0-0.01,0-0.02-0.01
				c-0.08-0.02-0.18-0.03-0.25-0.05c-0.29-0.09-0.58-0.2-0.86-0.33c-0.54-0.22-1.1-0.38-1.67-0.49c-0.2-0.01-0.39,0.06-0.53,0.2
				c-0.14-0.03-0.27-0.05-0.41-0.07C580.57,144.57,578.61,147.04,575.99,148.59L575.99,148.59z"/>
		</g>
		<g>
			<line class="st2" x1="123.2" y1="73.83" x2="133.01" y2="73.83"/>
			<line class="st2" x1="123.2" y1="79.36" x2="133.01" y2="79.36"/>
			<line class="st2" x1="123.2" y1="84.88" x2="133.01" y2="84.88"/>
			<line class="st2" x1="123.2" y1="95.88" x2="133.01" y2="95.88"/>
			<line class="st2" x1="123.2" y1="90.41" x2="133.01" y2="90.41"/>
			<rect x="110.26" y="76.17" class="st2" width="8.61" height="28.1"/>
			<line class="st2" x1="113.01" y1="79.36" x2="116.14" y2="79.36"/>
			<line class="st2" x1="113.01" y1="84.88" x2="116.14" y2="84.88"/>
			<line class="st2" x1="113.01" y1="90.41" x2="116.14" y2="90.41"/>
			<rect x="137.29" y="76.17" class="st2" width="8.61" height="28.1"/>
			<line class="st2" x1="140.04" y1="79.36" x2="143.17" y2="79.36"/>
			<line class="st2" x1="140.04" y1="84.88" x2="143.17" y2="84.88"/>
			<line class="st2" x1="140.04" y1="90.41" x2="143.17" y2="90.41"/>
			<line class="st2" x1="113.01" y1="95.88" x2="116.14" y2="95.88"/>
			<line class="st2" x1="140.04" y1="95.88" x2="143.17" y2="95.88"/>
			<rect x="118.87" y="69.96" class="st2" width="18.42" height="34.3"/>
		</g>
		<g>
			<g>
				<line class="st2" x1="128.1" y1="69.96" x2="128.1" y2="68.96"/>
				<line class="st49" x1="128.1" y1="65.16" x2="128.1" y2="49.95"/>
				<polyline class="st2" points="128.1,48.04 128.1,47.04 129.1,47.04 				"/>
				<line class="st50" x1="133.25" y1="47.04" x2="174.74" y2="47.04"/>
				<line class="st2" x1="176.81" y1="47.04" x2="177.81" y2="47.04"/>
			</g>
		</g>
		<g>
			<path class="st19" d="M185.22,36.94c3.56,0,6.52,2.56,7.15,5.94c0.04,0,0.09,0,0.13,0c1.81,0,3.36,1.12,4,2.7
				c1.54,0.07,2.92,0.73,3.92,1.77s1.62,2.46,1.62,4.01c0,3.2-2.59,5.79-5.78,5.79h-11.04"/>
			<path class="st19" d="M185.22,57.15h-11.04c-3.19,0-5.78-2.59-5.78-5.79c0-1.55,0.62-2.97,1.62-4.01s2.38-1.7,3.92-1.77
				c0.64-1.58,2.19-2.7,4-2.7c0.04,0,0.09,0,0.13,0c0.63-3.38,3.59-5.94,7.15-5.94"/>
		</g>
	</g>
</g>
</svg>
