<?xml version="1.0" encoding="utf-8"?>
<!-- Generator: Adobe Illustrator 24.0.0, SVG Export Plug-In . SVG Version: 6.00 Build 0)  -->
<svg version="1.1" xmlns="http://www.w3.org/2000/svg" xmlns:xlink="http://www.w3.org/1999/xlink" x="0px" y="0px"
	 viewBox="0 0 650 450" style="enable-background:new 0 0 650 450;" xml:space="preserve">
<style type="text/css">
	.st0{fill:#FFFFFF;}
	.st1{fill:#E6E7E8;}
	.st2{fill:none;stroke:#404041;stroke-width:2;stroke-miterlimit:10;}
	.st3{fill:#404041;}
	.st4{fill:#E5E9F7;}
	.st5{fill:#EFF1F7;}
	.st6{fill:#8ED1D8;}
	.st7{fill:#76B5ED;}
	.st8{fill:#A6E0F4;}
	.st9{fill:none;stroke:#76B5ED;stroke-width:5;stroke-linecap:round;stroke-miterlimit:10;stroke-dasharray:0,8;}
	.st10{fill:#DCDDE3;}
	.st11{fill:#659BCC;}
	.st12{fill:#BBD9F9;}
	.st13{fill:none;stroke:#76B5ED;stroke-miterlimit:10;}
	.st14{fill:none;stroke:#FFFFFF;stroke-width:4.9636;stroke-miterlimit:10;}
	.st15{fill:none;stroke:#76B5ED;stroke-width:5;stroke-miterlimit:10;}
	.st16{fill:#326CE5;}
	.st17{fill:#FBD2D3;}
	.st18{fill:none;stroke:#FBD2D3;stroke-width:30;stroke-miterlimit:10;}
	.st19{fill:#FFFFFF;stroke:#404041;stroke-width:2;stroke-miterlimit:10;}
	.st20{fill:#E1E4F9;}
	.st21{fill:#8EC2EA;}
	.st22{fill:#E6E7E8;stroke:#404041;stroke-width:2;stroke-miterlimit:10;}
	.st23{opacity:0.5;}
	.st24{fill:#CDDEFF;stroke:#404041;stroke-width:2;stroke-miterlimit:10;}
	.st25{fill:none;stroke:#717888;stroke-width:2;stroke-miterlimit:10;}
	.st26{fill:#717888;}
	.st27{fill:#FAFBFB;}
	.st28{fill:#CDDEFF;}
	.st29{fill:#D6F8ED;}
	.st30{fill:#FFFFFF;stroke:#717888;stroke-width:2;stroke-miterlimit:10;}
	.st31{fill:#FFE1B3;}
	.st32{fill:#BBBDBF;}
	.st33{fill:#C8B9DC;}
	.st34{fill:#FFE1B3;stroke:#717888;stroke-width:2;stroke-miterlimit:10;}
	.st35{fill:#FBD2D3;stroke:#717888;stroke-width:2;stroke-miterlimit:10;}
	.st36{fill:#EDC6C7;}
	.st37{fill:none;stroke:#717888;stroke-width:4;stroke-linecap:round;stroke-miterlimit:10;}
	.st38{fill:#CDDEFF;stroke:#717888;stroke-width:2;stroke-miterlimit:10;}
	.st39{fill:none;stroke:#717888;stroke-width:2;stroke-linejoin:round;stroke-miterlimit:10;}
	.st40{fill:#D6F8ED;stroke:#717888;stroke-width:2;stroke-miterlimit:10;}
	.st41{fill:#E6E7E8;stroke:#717888;stroke-width:2;stroke-miterlimit:10;}
	.st42{fill:#1E86D5;}
	.st43{fill:#232F3E;}
	.st44{fill:#FFE1B3;stroke:#404041;stroke-width:2;stroke-miterlimit:10;}
	.st45{fill:none;stroke:#404041;stroke-width:4;stroke-linecap:round;stroke-miterlimit:10;}
	.st46{fill:none;stroke:#404041;stroke-width:2;stroke-linejoin:round;stroke-miterlimit:10;}
	.st47{fill:#8EC2EA;stroke:#404041;stroke-width:2;stroke-miterlimit:10;}
	.st48{fill-rule:evenodd;clip-rule:evenodd;fill:#FFFFFF;}
	.st49{fill:none;stroke:#404041;stroke-width:2;stroke-miterlimit:10;stroke-dasharray:1.9017,3.8035;}
	.st50{fill:none;stroke:#404041;stroke-width:2;stroke-miterlimit:10;stroke-dasharray:2.0745,4.1489;}
	.st51{fill:none;stroke:#1E86D5;stroke-width:70;stroke-miterlimit:10;}
	.st52{fill:none;stroke:#404041;stroke-width:2;stroke-miterlimit:10;stroke-dasharray:2,4;}
	.st53{fill:none;stroke:#E6E7E8;stroke-width:2;stroke-miterlimit:10;}
	.st54{fill:none;stroke:#E6E7E8;stroke-width:2;stroke-linecap:round;stroke-miterlimit:10;}
	.st55{fill:none;stroke:#E6E7E8;stroke-width:2;stroke-linejoin:round;stroke-miterlimit:10;}
	.st56{fill:none;stroke:#E6E7E8;stroke-width:5;stroke-miterlimit:10;}
	.st57{fill:none;stroke:#FFFFFF;stroke-width:2;stroke-miterlimit:10;}
	.st58{fill:none;stroke:#404041;stroke-width:2;stroke-linecap:round;stroke-miterlimit:10;}
</style>
<g id="Layer_2">
</g>
<g id="Layer_1">
	<g>
		<path class="st1" d="M333.78,33.8c-0.16-0.9-0.24-1.83-0.24-2.77c0-8.91,7.22-16.13,16.13-16.13c0.72,0,1.44,0.05,2.13,0.14
			c3.14-5.61,9.14-9.41,16.03-9.41c8.49,0,15.63,5.77,17.73,13.6c3.18,0.97,5.63,3.56,6.43,6.8c4.78,0.09,8.78,3.35,9.99,7.77
			H333.78z"/>
		<g>
			<rect x="96.37" y="271.17" class="st1" width="81.8" height="30.26"/>
			<rect x="54.75" y="318.11" class="st1" width="85.28" height="30.26"/>
			<rect x="54.75" y="412" class="st1" width="85.28" height="30.26"/>
			<rect x="29.37" y="365.06" class="st1" width="53.55" height="30.26"/>
			
				<rect x="111.87" y="365.06" transform="matrix(-1 -4.500945e-11 4.500945e-11 -1 277.2794 760.3706)" class="st1" width="53.55" height="30.26"/>
			<g>
				<g>
					<polygon class="st3" points="83.92,318.11 81.92,318.11 81.92,285.3 94.08,285.3 94.08,287.3 83.92,287.3 					"/>
				</g>
				<g>
					<polygon class="st3" points="90.1,289.69 93.49,286.3 90.1,282.91 92.98,282.91 96.37,286.3 92.98,289.69 					"/>
				</g>
			</g>
			<g>
				<g>
					<rect x="66.19" y="350.66" class="st3" width="2" height="14.4"/>
				</g>
				<g>
					<polygon class="st3" points="63.8,354.64 67.19,351.25 70.58,354.64 70.58,351.76 67.19,348.37 63.8,351.76 					"/>
				</g>
			</g>
			<g>
				<g>
					<rect x="123.21" y="350.66" class="st3" width="2" height="14.4"/>
				</g>
				<g>
					<polygon class="st3" points="120.82,354.64 124.21,351.25 127.6,354.64 127.6,351.76 124.21,348.37 120.82,351.76 					"/>
				</g>
			</g>
			<g>
				<g>
					<polygon class="st3" points="54.75,428.13 16.32,428.13 16.32,332.24 52.47,332.24 52.47,334.24 18.32,334.24 18.32,426.13 
						54.75,426.13 					"/>
				</g>
				<g>
					<polygon class="st3" points="48.48,336.63 51.88,333.24 48.48,329.85 51.36,329.85 54.75,333.24 51.36,336.63 					"/>
				</g>
			</g>
		</g>
		<g>
			<path class="st3" d="M524.1,427.49h6.58v2h-4.14v2.46h3.87v1.98h-3.87v4.33h-2.44V427.49z"/>
			<path class="st3" d="M533.96,435.49l-0.77,2.76h-2.52l3.29-10.77h3.2l3.34,10.77h-2.62l-0.83-2.76H533.96z M536.69,433.67
				l-0.67-2.29c-0.19-0.64-0.38-1.44-0.54-2.08h-0.03c-0.16,0.64-0.32,1.45-0.5,2.08l-0.64,2.29H536.69z"/>
			<path class="st3" d="M544.38,427.49v10.77h-2.44v-10.77H544.38z"/>
			<path class="st3" d="M546.49,427.49h2.44v8.72h4.28v2.04h-6.73V427.49z"/>
			<path class="st3" d="M556.59,427.49v6.2c0,1.85,0.7,2.8,1.95,2.8c1.28,0,1.98-0.89,1.98-2.8v-6.2h2.43v6.04
				c0,3.32-1.68,4.9-4.49,4.9c-2.72,0-4.31-1.5-4.31-4.94v-6.01H556.59z"/>
			<path class="st3" d="M565.06,427.63c0.78-0.13,1.95-0.22,3.24-0.22c1.6,0,2.72,0.24,3.48,0.85c0.64,0.51,0.99,1.26,0.99,2.25
				c0,1.37-0.97,2.32-1.9,2.65v0.05c0.75,0.3,1.17,1.02,1.44,2.01c0.33,1.21,0.67,2.62,0.88,3.04h-2.49
				c-0.18-0.3-0.43-1.18-0.75-2.51c-0.29-1.34-0.75-1.71-1.74-1.73h-0.74v4.23h-2.41V427.63z M567.47,432.26h0.96
				c1.21,0,1.93-0.61,1.93-1.55c0-0.99-0.67-1.49-1.79-1.5c-0.59,0-0.93,0.05-1.1,0.08V432.26z"/>
			<path class="st3" d="M580.94,433.7h-3.96v2.56h4.42v2h-6.87v-10.77h6.65v2h-4.2v2.24h3.96V433.7z"/>
		</g>
		<g>
			<polygon class="st3" points="583.93,443.84 517.04,443.84 483.77,410.57 485.18,409.15 517.86,441.84 583.93,441.84 			"/>
		</g>
		<g class="st23">
			<circle class="st1" cx="410.95" cy="117.99" r="13.18"/>
		</g>
		<g>
			<g>
				<g>
					<rect x="189.07" y="431.16" class="st3" width="5" height="2"/>
				</g>
				<g>
					<rect x="197.5" y="431.16" class="st3" width="5" height="2"/>
				</g>
			</g>
			<g>
				<g>
					
						<rect x="191.18" y="434.81" transform="matrix(0.4999 -0.8661 0.8661 0.4999 -280.5889 385.68)" class="st3" width="5" height="2"/>
				</g>
				<g>
					
						<rect x="195.39" y="427.52" transform="matrix(0.4999 -0.8661 0.8661 0.4999 -272.1646 385.6798)" class="st3" width="5" height="2"/>
				</g>
			</g>
			<g>
				<g>
					<rect x="196.89" y="433.31" transform="matrix(0.866 -0.5 0.5 0.866 -191.3946 157.3347)" class="st3" width="2" height="5"/>
				</g>
				<g>
					<rect x="192.68" y="426.02" transform="matrix(0.866 -0.5 0.5 0.866 -188.3114 154.2514)" class="st3" width="2" height="5"/>
				</g>
			</g>
		</g>
		<g>
			<g>
				<g>
					<rect x="149.5" y="55.42" class="st3" width="5" height="2"/>
				</g>
				<g>
					<rect x="157.92" y="55.42" class="st3" width="5" height="2"/>
				</g>
			</g>
			<g>
				<g>
					
						<rect x="151.6" y="59.06" transform="matrix(0.4999 -0.8661 0.8661 0.4999 25.0434 163.5018)" class="st3" width="5" height="2"/>
				</g>
				<g>
					
						<rect x="155.82" y="51.77" transform="matrix(0.4999 -0.8661 0.8661 0.4999 33.4677 163.5016)" class="st3" width="5" height="2"/>
				</g>
			</g>
			<g>
				<g>
					<rect x="157.32" y="57.57" transform="matrix(0.866 -0.5 0.5 0.866 -8.8221 87.2056)" class="st3" width="2" height="5"/>
				</g>
				<g>
					<rect x="153.1" y="50.27" transform="matrix(0.866 -0.5 0.5 0.866 -5.7389 84.1223)" class="st3" width="2" height="5"/>
				</g>
			</g>
		</g>
		<g>
			<g>
				<g>
					<rect x="445.12" y="13.13" class="st3" width="5" height="2"/>
				</g>
				<g>
					<rect x="453.54" y="13.13" class="st3" width="5" height="2"/>
				</g>
			</g>
			<g>
				<g>
					
						<rect x="447.22" y="16.78" transform="matrix(0.4999 -0.8661 0.8661 0.4999 209.4997 398.3849)" class="st3" width="5" height="2"/>
				</g>
				<g>
					
						<rect x="451.44" y="9.49" transform="matrix(0.4999 -0.8661 0.8661 0.4999 217.923 398.3841)" class="st3" width="5" height="2"/>
				</g>
			</g>
			<g>
				<g>
					<rect x="452.94" y="15.28" transform="matrix(0.866 -0.5 0.5 0.866 51.9269 229.3517)" class="st3" width="2" height="5"/>
				</g>
				<g>
					<rect x="448.72" y="7.99" transform="matrix(0.866 -0.5 0.5 0.866 55.01 226.2689)" class="st3" width="2" height="5"/>
				</g>
			</g>
		</g>
		<g>
			<g>
				<g>
					<path class="st3" d="M579.81,136.47h-7.82l-1.02-4.56l-3.95,2.5l-5.53-5.53l2.5-3.95l-4.56-1.02v-7.82l4.56-1.02l-2.5-3.95
						l5.53-5.53l3.95,2.5l1.02-4.56h7.82l1.02,4.56l3.95-2.5l5.53,5.53l-2.5,3.95l4.56,1.02v7.82l-4.56,1.02l2.5,3.95l-5.53,5.53
						l-3.95-2.5L579.81,136.47z M573.58,134.47h4.62l0.92-4.11l0.51-0.19c0.27-0.1,0.54-0.21,0.81-0.33l0.5-0.23l3.55,2.25
						l3.27-3.27l-2.25-3.55l0.23-0.49c0.12-0.27,0.23-0.54,0.33-0.81l0.19-0.51l4.11-0.92v-4.62l-4.11-0.92l-0.19-0.51
						c-0.1-0.27-0.21-0.54-0.33-0.81l-0.23-0.49l2.25-3.55l-3.27-3.27l-3.55,2.25l-0.5-0.23c-0.26-0.12-0.53-0.23-0.81-0.33
						l-0.51-0.19l-0.92-4.11h-4.62l-0.92,4.11l-0.51,0.19c-0.27,0.1-0.54,0.21-0.81,0.33l-0.5,0.23l-3.55-2.25l-3.27,3.27l2.25,3.55
						l-0.23,0.49c-0.12,0.27-0.23,0.54-0.33,0.81l-0.19,0.51l-4.11,0.92v4.62l4.11,0.92l0.19,0.51c0.1,0.27,0.21,0.54,0.33,0.81
						l0.23,0.49l-2.25,3.55l3.27,3.27l3.55-2.25l0.5,0.23c0.27,0.12,0.54,0.23,0.81,0.33l0.51,0.19L573.58,134.47z"/>
				</g>
				<g>
					<path class="st3" d="M575.89,126.08c-1.56,0-3.12-0.59-4.3-1.78c-2.37-2.37-2.37-6.23,0-8.6c2.37-2.37,6.23-2.37,8.6,0l0,0
						c2.37,2.37,2.37,6.23,0,8.6C579.01,125.48,577.45,126.08,575.89,126.08z M575.89,115.92c-1.05,0-2.09,0.4-2.89,1.19
						c-1.59,1.59-1.59,4.18,0,5.77c1.59,1.59,4.18,1.59,5.78,0c1.59-1.59,1.59-4.18,0-5.77l0,0
						C577.99,116.31,576.94,115.92,575.89,115.92z"/>
				</g>
			</g>
		</g>
		<g>
			<path class="st3" d="M242.19,15.13h-10.88c-0.36,0-0.69-0.19-0.87-0.5s-0.18-0.69,0-1l5.44-9.42c0.36-0.62,1.38-0.62,1.73,0
				l5.44,9.42c0.18,0.31,0.18,0.69,0,1S242.54,15.13,242.19,15.13z M233.04,13.13h7.41l-3.71-6.42L233.04,13.13z"/>
		</g>
		<g>
			<path class="st3" d="M246.61,394.43c-2.65,0-4.81-2.16-4.81-4.81c0-2.65,2.16-4.81,4.81-4.81s4.81,2.16,4.81,4.81
				C251.43,392.27,249.27,394.43,246.61,394.43z M246.61,386.81c-1.55,0-2.81,1.26-2.81,2.81c0,1.55,1.26,2.81,2.81,2.81
				s2.81-1.26,2.81-2.81C249.43,388.07,248.16,386.81,246.61,386.81z"/>
		</g>
		<circle class="st1" cx="584.54" cy="235.01" r="3.81"/>
		<g>
			<path class="st3" d="M584.54,184.61c-2.65,0-4.81-2.16-4.81-4.81c0-2.65,2.16-4.81,4.81-4.81s4.81,2.16,4.81,4.81
				C589.35,182.45,587.19,184.61,584.54,184.61z M584.54,176.98c-1.55,0-2.81,1.26-2.81,2.81c0,1.55,1.26,2.81,2.81,2.81
				s2.81-1.26,2.81-2.81C587.35,178.24,586.09,176.98,584.54,176.98z"/>
		</g>
		<circle class="st1" cx="36.04" cy="258.61" r="3.67"/>
		<circle class="st1" cx="96.37" cy="86.33" r="3.67"/>
		<circle class="st1" cx="346.67" cy="422.56" r="3.67"/>
		<g>
			<g>
				<rect x="569.27" y="285.29" class="st3" width="8.79" height="2"/>
			</g>
			<g>
				<rect x="572.67" y="281.89" class="st3" width="2" height="8.79"/>
			</g>
		</g>
		<g>
			<g>
				<rect x="66.21" y="223.04" class="st3" width="8.79" height="2"/>
			</g>
			<g>
				<rect x="69.6" y="219.64" class="st3" width="2" height="8.79"/>
			</g>
		</g>
		<g>
			<path class="st42" d="M308.81,141.62l4.27,22.64l0.34-0.06l23.13-58.42l-42.81-45.99l-0.34,0.06l4.38,23.26
				c-46.18,14.2-84.05,49-102,94.12l54.77,21.8C261.1,172.53,282.47,151.67,308.81,141.62z"/>
			<path class="st1" d="M344.98,338.13c-9.06,0-17.96-1.18-26.57-3.51l9.85-20.85l-0.31-0.15l-53.03,33.69l7.64,62.37l0.31,0.15
				l10.11-21.39c16.71,5.73,34.17,8.63,52.01,8.63c30.51,0,60.2-8.6,85.85-24.87l-31.57-49.78
				C383.06,332.7,364.29,338.13,344.98,338.13z"/>
			<path class="st1" d="M505.51,236.56c0-13.45-1.67-26.8-4.96-39.7l-57.12,14.57c2.07,8.14,3.13,16.59,3.13,25.13
				c0,20.07-5.69,39.07-16.52,55.54l-16.75-15.8l-0.24,0.25l15.61,60.86l61.66,12.05l0.24-0.25l-17.23-16.26
				C494.12,305.29,505.51,271.3,505.51,236.56z"/>
			<path class="st42" d="M243.54,241.6l22.82,2.92l0.04-0.34l-48.43-40.03l-56.96,26.53l-0.04,0.34l23.52,3.01
				c-0.01,0.84-0.03,1.69-0.03,2.53c0,47.88,21.14,92.9,58,123.52l37.67-45.35C258.09,296.43,244.93,270,243.54,241.6z"/>
			<path class="st21" d="M424.11,172.9l-20.2,11.1l0.17,0.3l62.72,3.82l30.4-54.99l-0.17-0.3l-20.74,11.4
				c-12.99-18.43-29.92-34.15-49.27-45.67c-21.7-12.92-46.51-20.59-71.75-22.19l-3.72,58.83
				C379.9,136.99,406.34,150.88,424.11,172.9z"/>
		</g>
		<g>
			<g>
				<path class="st3" d="M251.09,200.32l-56.63-22.54l0.37-0.93c17.82-44.77,55.83-80.01,101.79-94.44l-4.4-23.36l1.87-0.35
					l43.61,46.85l-23.57,59.52l-1.87,0.35l-4.23-22.45c-25.75,10.19-46.33,30.68-56.57,56.41L251.09,200.32z M197.06,176.67
					l52.92,21.06c10.71-26.17,31.97-46.93,58.46-57.04l1.12-0.43l3.95,20.96L335.37,106L294.9,62.52l4.01,21.28l-0.85,0.26
					C252.6,98.04,214.92,132.62,197.06,176.67z"/>
			</g>
			<g>
				<path class="st3" d="M283.31,411.17l-1.72-0.81l-0.07-0.55l-7.71-63l54.03-34.33l1.71,0.81l-9.77,20.67
					c8.17,2.1,16.63,3.17,25.16,3.17c19.12,0,37.71-5.38,53.74-15.55l0.84-0.54l32.65,51.47l-0.84,0.54
					c-25.81,16.37-55.69,25.03-86.39,25.03c-17.6,0-34.92-2.83-51.49-8.4L283.31,411.17z M275.95,347.82l7.22,58.96l9.24-19.57
					l0.85,0.29c16.61,5.69,34,8.58,51.68,8.58c29.99,0,59.17-8.36,84.47-24.18l-30.5-48.09c-16.16,10.03-34.8,15.33-53.97,15.33
					c-9.11,0-18.14-1.19-26.83-3.55l-1.15-0.31l9.12-19.3L275.95,347.82z"/>
			</g>
			<g>
				<path class="st3" d="M490.65,350.56l-62.82-12.28l-15.91-62.01l1.3-1.38l16.6,15.67c10.28-16.05,15.71-34.69,15.71-53.98
					c0-8.45-1.04-16.82-3.1-24.88l-0.25-0.97l59.06-15.06l0.25,0.97c3.31,12.98,4.99,26.42,4.99,39.95
					c0,34.46-11.3,68.62-31.84,96.28l17.31,16.33L490.65,350.56z M429.45,336.55l58.29,11.39l-15.76-14.88l0.54-0.71
					c20.62-27.44,31.97-61.46,31.97-95.79c0-13.03-1.58-25.97-4.68-38.48l-55.18,14.08c1.94,7.92,2.92,16.13,2.92,24.41
					c0,20.09-5.77,39.48-16.69,56.08l-0.66,1l-15.5-14.63L429.45,336.55z"/>
			</g>
			<g>
				<path class="st3" d="M242.56,361.49l-0.77-0.64c-37.09-30.81-58.36-76.11-58.36-124.29c0-0.55,0.01-1.1,0.02-1.65l-23.62-3.02
					l0.24-1.88l58.03-27.03l49.34,40.78l-0.24,1.88l-22.63-2.9c1.69,27.6,14.83,53.5,36.16,71.22l0.77,0.64L242.56,361.49z
					 M163.96,230.4l21.52,2.76l-0.02,1.55c-0.01,0.62-0.02,1.24-0.02,1.85c0,47.25,20.72,91.7,56.88,122.11l36.39-43.81
					c-21.62-18.32-34.79-44.95-36.18-73.22l-0.06-1.19l21.13,2.71l-45.78-37.84L163.96,230.4z"/>
			</g>
			<g>
				<path class="st3" d="M467.34,189.16l-63.9-3.89l-0.92-1.66l20.03-11.01c-17.71-21.41-43.56-34.66-71.11-36.41l-1-0.06
					l3.85-60.83l1,0.06c25.4,1.61,50.37,9.33,72.2,22.33c19.11,11.38,36.06,27.01,49.06,45.22l20.83-11.45l0.91,1.66L467.34,189.16z
					 M406.91,183.48l59.29,3.61l28.73-51.98l-18.97,10.43l-0.52-0.73c-12.91-18.3-29.84-34-48.97-45.39
					c-21.28-12.67-45.57-20.26-70.31-21.99l-3.6,56.84c28.12,2.06,54.42,15.87,72.3,38l0.75,0.93L406.91,183.48z"/>
			</g>
		</g>
		<circle class="st31" cx="344.98" cy="236.69" r="65.27"/>
		<g>
			<path class="st3" d="M344.98,293.45c-31.3,0-56.76-25.46-56.76-56.76s25.46-56.76,56.76-56.76s56.76,25.46,56.76,56.76
				S376.28,293.45,344.98,293.45z M344.98,181.93c-30.2,0-54.76,24.57-54.76,54.76s24.57,54.76,54.76,54.76s54.76-24.57,54.76-54.76
				S375.18,181.93,344.98,181.93z"/>
		</g>
		<g>
			<path class="st3" d="M384.67,100.7c0.79,0.12,1.93,0.38,3.16,0.78c1.52,0.49,2.52,1.06,3.06,1.87c0.45,0.68,0.56,1.51,0.25,2.45
				c-0.42,1.31-1.64,1.91-2.62,1.95l-0.02,0.05c0.62,0.52,0.8,1.33,0.75,2.36c-0.05,1.26-0.16,2.7-0.09,3.16l-2.38-0.76
				c-0.07-0.34-0.05-1.26,0.05-2.62c0.14-1.37-0.19-1.86-1.13-2.18l-0.7-0.22l-1.3,4.04l-2.3-0.74L384.67,100.7z M385.56,105.86
				l0.91,0.29c1.16,0.37,2.03,0.01,2.32-0.89c0.3-0.94-0.18-1.62-1.25-1.98c-0.56-0.18-0.9-0.24-1.07-0.26L385.56,105.86z"/>
			<path class="st3" d="M393.1,111.51c-0.3,0.97,0.45,1.78,1.5,2.2c0.77,0.31,1.44,0.45,2.13,0.5l-0.31,1.65
				c-0.86,0-1.83-0.21-2.81-0.6c-2.47-0.98-3.31-2.97-2.41-5.24c0.73-1.84,2.68-3.43,5.21-2.42c2.35,0.93,2.52,3.11,1.8,4.91
				c-0.15,0.39-0.33,0.71-0.43,0.86L393.1,111.51z M396.37,111.02c0.22-0.55,0.35-1.57-0.7-1.98c-0.95-0.38-1.68,0.33-1.98,0.92
				L396.37,111.02z"/>
			<path class="st3" d="M398.78,114.92c0.29,0.44,1,1.12,1.65,1.42c0.67,0.31,1.05,0.2,1.22-0.16c0.17-0.36,0.03-0.64-0.67-1.3
				c-1.24-1.17-1.44-2.23-1.03-3.07c0.61-1.32,2.21-1.8,3.97-0.99c0.83,0.38,1.48,0.92,1.82,1.33l-1.1,1.34
				c-0.24-0.32-0.74-0.84-1.35-1.12c-0.54-0.25-0.94-0.17-1.11,0.19c-0.15,0.33,0.04,0.64,0.77,1.35c1.13,1.09,1.39,2.04,0.92,3.09
				c-0.61,1.32-2.11,1.81-4.14,0.87c-0.93-0.43-1.66-1.02-2.06-1.56L398.78,114.92z"/>
			<path class="st3" d="M404.05,119.78l3.58-6.95l2.16,1.11l-3.58,6.95L404.05,119.78z M410.86,112.05
				c-0.31,0.6-1.01,0.85-1.72,0.48c-0.68-0.35-0.89-1.07-0.57-1.66c0.31-0.63,1.01-0.87,1.7-0.51
				C410.97,110.72,411.17,111.41,410.86,112.05z"/>
			<path class="st3" d="M408.89,119.9c0.26,0.46,0.9,1.2,1.53,1.55c0.64,0.36,1.03,0.29,1.23-0.05c0.2-0.35,0.09-0.63-0.56-1.35
				c-1.13-1.27-1.24-2.35-0.77-3.14c0.72-1.26,2.35-1.61,4.03-0.65c0.79,0.45,1.4,1.04,1.7,1.48l-1.21,1.25
				c-0.21-0.34-0.67-0.9-1.25-1.23c-0.52-0.29-0.93-0.25-1.13,0.1c-0.18,0.32-0.01,0.64,0.65,1.4c1.04,1.18,1.21,2.14,0.65,3.15
				c-0.72,1.26-2.25,1.63-4.2,0.52c-0.89-0.51-1.57-1.15-1.93-1.72L408.89,119.9z"/>
			<path class="st3" d="M421.45,118.16l-1.2,1.89l1.47,0.94l-0.96,1.51l-1.47-0.94l-1.52,2.39c-0.51,0.8-0.55,1.28,0.07,1.68
				c0.26,0.16,0.47,0.26,0.64,0.33l-0.97,1.56c-0.34-0.06-0.87-0.31-1.45-0.67c-0.66-0.42-1.07-1-1.18-1.55
				c-0.13-0.63,0.09-1.39,0.68-2.32l1.72-2.7l-0.88-0.56l0.96-1.51l0.88,0.56l0.91-1.43L421.45,118.16z"/>
			<path class="st3" d="M422.19,130.86l0.34-0.72l-0.04-0.03c-0.78,0.21-1.63,0.02-2.38-0.52c-1.29-0.92-1.38-2.41-0.66-3.42
				c1.18-1.65,3.23-1.39,5.48,0.24l0.06-0.09c0.24-0.34,0.4-0.95-0.57-1.65c-0.65-0.46-1.5-0.74-2.1-0.77l0.55-1.54
				c0.62,0.07,1.72,0.38,2.87,1.21c2.12,1.52,1.91,3.25,0.84,4.75l-1.58,2.21c-0.44,0.61-0.83,1.22-1.02,1.62L422.19,130.86z
				 M424.1,127.69c-1.03-0.76-2.02-1.09-2.56-0.32c-0.36,0.51-0.2,1,0.24,1.31c0.49,0.35,1.13,0.32,1.55,0.01
				c0.1-0.09,0.2-0.19,0.28-0.31L424.1,127.69z"/>
			<path class="st3" d="M428.68,129.02c0.62-0.75,1.12-1.42,1.54-1.97l1.63,1.34l-0.6,0.9l0.04,0.03c0.56-0.18,1.66-0.25,2.66,0.57
				c1.24,1.02,1.49,2.59,0.03,4.38l-2.95,3.58l-1.88-1.55l2.76-3.35c0.64-0.78,0.8-1.53,0.13-2.09c-0.52-0.43-1.12-0.32-1.53-0.08
				c-0.14,0.07-0.32,0.24-0.46,0.41l-2.87,3.48l-1.88-1.54L428.68,129.02z"/>
			<path class="st3" d="M436.76,142.9c-0.45-0.15-1.15-0.59-1.83-1.23c-1.85-1.72-1.98-3.95-0.3-5.75c1.56-1.67,3.98-1.97,6.12,0.01
				c0.47,0.44,0.91,1,1.15,1.49l-1.51,1.06c-0.12-0.29-0.36-0.67-0.83-1.1c-0.94-0.87-2.17-0.77-3.03,0.17
				c-0.98,1.05-0.79,2.26,0.07,3.07c0.42,0.39,0.81,0.63,1.18,0.77L436.76,142.9z"/>
			<path class="st3" d="M440.92,142.95c-0.67,0.75-0.34,1.8,0.45,2.62c0.57,0.6,1.12,1.01,1.72,1.34l-0.97,1.37
				c-0.78-0.36-1.57-0.95-2.3-1.72c-1.83-1.92-1.77-4.08,0-5.77c1.43-1.37,3.87-1.99,5.75-0.03c1.74,1.83,0.98,3.88-0.42,5.22
				c-0.3,0.29-0.6,0.51-0.75,0.6L440.92,142.95z M444.1,143.87c0.43-0.41,0.97-1.28,0.2-2.09c-0.71-0.74-1.67-0.4-2.18,0.01
				L444.1,143.87z"/>
		</g>
		<g>
			<path class="st0" d="M241.09,145.95l-7.89-7.34l1.94-2.08l4.42,1.05c1.27,0.3,2.69,0.75,3.9,1.23l0.03-0.04
				c-1.15-0.85-2.25-1.81-3.43-2.91l-2.31-2.15l1.53-1.64l7.89,7.34l-1.74,1.87l-4.61-1.14c-1.28-0.32-2.78-0.75-4.06-1.22
				l-0.02,0.05c1.09,0.92,2.22,1.93,3.51,3.13l2.38,2.21L241.09,145.95z"/>
			<path class="st0" d="M251.41,129.95c1.95,2.1,1.36,4.44-0.18,5.87c-1.68,1.56-3.99,1.66-5.71-0.19s-1.61-4.17,0.23-5.88
				C247.51,128.12,249.8,128.23,251.41,129.95z M247.31,133.87c0.92,0.98,2.01,1.34,2.77,0.63c0.69-0.64,0.49-1.75-0.47-2.78
				c-0.8-0.86-1.93-1.42-2.74-0.66C246.03,131.86,246.53,133.03,247.31,133.87z"/>
			<path class="st0" d="M251.83,127.98c-0.74-0.88-1.24-1.44-1.7-1.94l1.61-1.34l0.99,1.05l0.05-0.04
				c-0.42-1.13,0.01-2.11,0.59-2.59c0.17-0.14,0.26-0.22,0.41-0.3l1.47,1.76c-0.16,0.09-0.34,0.2-0.55,0.37
				c-0.69,0.57-0.85,1.33-0.49,2.01c0.08,0.14,0.19,0.3,0.31,0.45l2.54,3.05l-1.87,1.56L251.83,127.98z"/>
			<path class="st0" d="M256.56,123.85c-0.57-0.79-1.08-1.45-1.51-1.99l1.66-1.2l0.71,0.79l0.04-0.03c-0.02-0.6,0.11-1.6,1.2-2.38
				c0.82-0.59,1.77-0.64,2.52-0.18l0.03-0.02c0-0.49,0.1-0.96,0.27-1.35c0.2-0.46,0.52-0.84,0.98-1.18
				c1.22-0.88,2.76-0.69,4.13,1.21l2.7,3.74l-1.92,1.38l-2.49-3.45c-0.66-0.92-1.35-1.24-1.98-0.78c-0.45,0.33-0.55,0.87-0.41,1.34
				c0.05,0.18,0.18,0.41,0.29,0.56l2.67,3.71l-1.92,1.38l-2.56-3.56c-0.58-0.8-1.26-1.14-1.88-0.69c-0.51,0.36-0.52,0.97-0.41,1.38
				c0.05,0.2,0.17,0.39,0.28,0.55l2.67,3.7l-1.92,1.38L256.56,123.85z"/>
			<path class="st0" d="M274.59,118.08l-0.53-0.6l-0.04,0.03c-0.11,0.8-0.63,1.5-1.42,1.98c-1.36,0.82-2.76,0.33-3.41-0.74
				c-1.06-1.74,0-3.52,2.38-4.94l-0.06-0.1c-0.21-0.36-0.71-0.75-1.74-0.12c-0.69,0.42-1.27,1.09-1.54,1.63l-1.2-1.11
				c0.31-0.54,1.03-1.43,2.24-2.17c2.23-1.35,3.74-0.47,4.69,1.1l1.41,2.33c0.39,0.64,0.79,1.24,1.08,1.57L274.59,118.08z
				 M272.43,115.07c-1.1,0.65-1.79,1.42-1.3,2.23c0.32,0.53,0.84,0.58,1.3,0.3c0.52-0.32,0.74-0.92,0.62-1.42
				c-0.04-0.13-0.1-0.26-0.17-0.38L272.43,115.07z"/>
			<path class="st0" d="M272.5,106.19l2.13-1.16l5.43,9.98l-2.14,1.16L272.5,106.19z"/>
		</g>
		<g>
			<path class="st0" d="M246.92,155.02c2.8,2.15,3.2,5.15,1.29,7.65c-1.94,2.54-5,2.56-7.44,0.69c-2.57-1.96-3.23-5.07-1.29-7.6
				C241.49,153.14,244.56,153.21,246.92,155.02z M242.3,161.29c1.68,1.28,3.46,1.4,4.45,0.11c1-1.31,0.33-3.01-1.33-4.28
				c-1.54-1.18-3.42-1.45-4.44-0.12C239.97,158.3,240.63,160.01,242.3,161.29z"/>
			<path class="st0" d="M248.37,153.85c-0.76-0.69-1.43-1.26-1.98-1.72l1.42-1.56l0.88,0.65l0.02-0.02
				c-0.23-0.99,0.05-1.94,0.82-2.78c1.15-1.27,3.29-1.4,5.13,0.28c2.11,1.92,1.89,4.16,0.71,5.45c-0.63,0.7-1.41,0.99-2.03,0.9
				l-0.02,0.02l2.88,2.62l-1.64,1.8L248.37,153.85z M251.36,153.29c0.14,0.13,0.28,0.24,0.41,0.31c0.59,0.32,1.34,0.24,1.81-0.28
				c0.71-0.78,0.48-1.84-0.5-2.73c-0.92-0.84-2-1.06-2.73-0.25c-0.46,0.51-0.49,1.3-0.07,1.91c0.07,0.11,0.18,0.23,0.29,0.33
				L251.36,153.29z"/>
			<path class="st0" d="M257.83,146.85c0.75,0.67,1.8,0.34,2.63-0.44c0.6-0.57,1.01-1.12,1.34-1.72l1.37,0.97
				c-0.36,0.78-0.96,1.57-1.72,2.3c-1.92,1.83-4.08,1.76-5.77-0.01c-1.37-1.44-1.98-3.87-0.01-5.75c1.83-1.74,3.88-0.98,5.21,0.42
				c0.29,0.3,0.51,0.6,0.6,0.75L257.83,146.85z M258.76,143.67c-0.41-0.43-1.28-0.97-2.09-0.2c-0.74,0.71-0.4,1.66,0,2.18
				L258.76,143.67z"/>
			<path class="st0" d="M261.31,140.76c-0.75-0.88-1.26-1.43-1.71-1.93l1.6-1.35l0.99,1.05l0.05-0.04c-0.43-1.13-0.01-2.11,0.57-2.6
				c0.17-0.14,0.26-0.22,0.41-0.31l1.48,1.75c-0.16,0.09-0.34,0.2-0.54,0.38c-0.68,0.58-0.84,1.34-0.47,2.02
				c0.08,0.14,0.19,0.3,0.32,0.45l2.56,3.03l-1.86,1.57L261.31,140.76z"/>
			<path class="st0" d="M272.66,138.38l-0.59-0.54l-0.04,0.03c-0.04,0.81-0.47,1.56-1.21,2.11c-1.27,0.95-2.71,0.6-3.46-0.4
				c-1.22-1.62-0.35-3.5,1.87-5.15l-0.07-0.09c-0.25-0.33-0.79-0.67-1.74,0.05c-0.64,0.48-1.15,1.21-1.37,1.77l-1.3-0.98
				c0.25-0.57,0.88-1.52,2.02-2.38c2.08-1.57,3.67-0.84,4.78,0.63l1.63,2.17c0.45,0.6,0.91,1.16,1.23,1.45L272.66,138.38z
				 M270.2,135.6c-1.03,0.76-1.64,1.6-1.07,2.35c0.38,0.5,0.89,0.49,1.32,0.16c0.49-0.37,0.64-0.98,0.47-1.48
				c-0.05-0.12-0.13-0.25-0.21-0.36L270.2,135.6z"/>
			<path class="st0" d="M272.36,126.32l1.24,1.86l1.45-0.97l0.99,1.49l-1.45,0.97l1.57,2.36c0.52,0.79,0.95,1.02,1.56,0.61
				c0.25-0.17,0.44-0.33,0.56-0.45l1.03,1.52c-0.19,0.28-0.63,0.67-1.2,1.05c-0.65,0.44-1.35,0.57-1.89,0.45
				c-0.63-0.14-1.23-0.64-1.85-1.56l-1.78-2.66l-0.87,0.58l-0.99-1.49l0.87-0.58l-0.94-1.41L272.36,126.32z"/>
			<path class="st0" d="M277.45,123.21c0.35,0.57,0.19,1.3-0.49,1.72c-0.66,0.4-1.38,0.2-1.71-0.38c-0.38-0.59-0.22-1.31,0.45-1.72
				C276.37,122.42,277.07,122.61,277.45,123.21z M280.5,133.05l-4.07-6.68l2.08-1.26l4.07,6.68L280.5,133.05z"/>
			<path class="st0" d="M289.04,123.65c1.35,2.52,0.18,4.64-1.67,5.63c-2.02,1.08-4.28,0.59-5.47-1.64
				c-1.19-2.23-0.49-4.44,1.72-5.62C285.74,120.89,287.93,121.58,289.04,123.65z M284.09,126.4c0.63,1.18,1.6,1.81,2.52,1.32
				c0.83-0.45,0.92-1.56,0.26-2.8c-0.55-1.03-1.51-1.86-2.48-1.34C283.36,124.12,283.55,125.38,284.09,126.4z"/>
			<path class="st0" d="M289.95,121.75c-0.4-0.89-0.76-1.64-1.07-2.26l1.93-0.86l0.54,0.94l0.04-0.02c0.09-0.58,0.52-1.6,1.71-2.12
				c1.46-0.65,2.99-0.17,3.92,1.94l1.88,4.24l-2.22,0.99l-1.76-3.96c-0.41-0.92-1.01-1.41-1.81-1.05c-0.61,0.27-0.79,0.86-0.76,1.33
				c0,0.16,0.07,0.39,0.16,0.59l1.83,4.13l-2.22,0.98L289.95,121.75z"/>
		</g>
		<g>
			<path class="st3" d="M314.77,363.51l-1.36,2.53l-2.47-0.55l5.58-9.8l3.13,0.7l0.9,11.26l-2.56-0.58l-0.21-2.88L314.77,363.51z
				 M317.84,362.32l-0.16-2.38c-0.05-0.67-0.06-1.49-0.07-2.15l-0.03-0.01c-0.3,0.59-0.63,1.35-0.94,1.92l-1.13,2.09L317.84,362.32z
				"/>
			<path class="st3" d="M331.29,357.72l-1.29,8.94c-0.13,0.87-0.23,1.79-0.27,2.32l-2.14-0.31l0.05-1.16l-0.03,0
				c-0.62,0.8-1.62,1.11-2.61,0.97c-1.84-0.27-3.09-2.05-2.74-4.46c0.36-2.62,2.21-3.88,4.06-3.62c0.95,0.14,1.65,0.58,1.92,1.17
				l0.03,0l0.6-4.2L331.29,357.72z M327.91,364.16c0.02-0.13,0.03-0.3,0.03-0.43c-0.05-0.67-0.49-1.28-1.24-1.39
				c-1.09-0.16-1.8,0.74-1.98,1.96c-0.19,1.31,0.34,2.23,1.34,2.38c0.7,0.1,1.32-0.3,1.56-0.96c0.07-0.17,0.12-0.34,0.14-0.54
				L327.91,364.16z"/>
			<path class="st3" d="M336.52,369.54l-0.09-0.79l-0.05,0c-0.55,0.58-1.38,0.86-2.3,0.79c-1.58-0.12-2.44-1.33-2.35-2.58
				c0.15-2.03,2.04-2.87,4.79-2.65l0.01-0.11c0.03-0.41-0.15-1.02-1.35-1.11c-0.8-0.06-1.66,0.15-2.2,0.43l-0.33-1.6
				c0.56-0.26,1.66-0.57,3.08-0.47c2.6,0.19,3.32,1.78,3.18,3.62l-0.2,2.71c-0.05,0.75-0.07,1.47-0.03,1.91L336.52,369.54z
				 M336.5,365.83c-1.28-0.11-2.29,0.12-2.36,1.06c-0.04,0.62,0.35,0.95,0.89,0.99c0.61,0.04,1.13-0.32,1.32-0.8
				c0.04-0.13,0.07-0.27,0.08-0.41L336.5,365.83z"/>
			<path class="st3" d="M340.99,364.6c0-1.02-0.03-1.9-0.06-2.62l2.11,0l0.11,1.09h0.03c0.58-0.83,1.47-1.26,2.61-1.26
				c1.71,0,3.25,1.49,3.24,3.99c0,2.85-1.81,4.19-3.56,4.19c-0.94,0-1.68-0.39-2.03-0.9l-0.03,0l-0.01,3.89l-2.43,0L340.99,364.6z
				 M343.42,366.44c0,0.19,0.02,0.37,0.05,0.51c0.16,0.66,0.72,1.15,1.42,1.16c1.05,0,1.68-0.88,1.68-2.21
				c0-1.25-0.56-2.19-1.64-2.19c-0.69,0-1.3,0.51-1.46,1.23c-0.03,0.13-0.05,0.29-0.05,0.43L343.42,366.44z"/>
			<path class="st3" d="M353.06,359.48l0.13,2.24l1.74-0.1l0.11,1.79l-1.74,0.1l0.17,2.83c0.05,0.94,0.3,1.36,1.04,1.32
				c0.3-0.02,0.54-0.06,0.71-0.11l0.13,1.84c-0.31,0.15-0.88,0.26-1.57,0.3c-0.78,0.05-1.45-0.19-1.86-0.56
				c-0.47-0.44-0.74-1.18-0.81-2.28l-0.19-3.2l-1.04,0.06l-0.1-1.79l1.04-0.06l-0.1-1.69L353.06,359.48z"/>
			<path class="st3" d="M361.6,368.78l-0.23-0.76l-0.05,0.01c-0.44,0.68-1.19,1.11-2.12,1.21c-1.57,0.18-2.64-0.85-2.79-2.09
				c-0.23-2.02,1.46-3.2,4.22-3.5l-0.01-0.11c-0.05-0.41-0.34-0.98-1.53-0.84c-0.79,0.09-1.61,0.46-2.08,0.84l-0.63-1.51
				c0.51-0.37,1.53-0.87,2.94-1.03c2.59-0.3,3.59,1.13,3.8,2.96l0.31,2.7c0.09,0.75,0.2,1.46,0.33,1.88L361.6,368.78z
				 M360.89,365.14c-1.27,0.13-2.22,0.55-2.12,1.48c0.07,0.62,0.52,0.88,1.06,0.81c0.6-0.07,1.05-0.52,1.15-1.04
				c0.02-0.13,0.02-0.28,0-0.42L360.89,365.14z"/>
			<path class="st3" d="M366.74,357.83l0.38,2.21l1.72-0.29l0.3,1.76l-1.72,0.29l0.48,2.79c0.16,0.93,0.46,1.32,1.18,1.19
				c0.3-0.05,0.53-0.12,0.7-0.18l0.33,1.81c-0.29,0.18-0.85,0.36-1.53,0.47c-0.77,0.13-1.46-0.02-1.91-0.35
				c-0.52-0.38-0.87-1.08-1.05-2.17l-0.54-3.15l-1.02,0.18l-0.3-1.76l1.03-0.18l-0.29-1.67L366.74,357.83z"/>
			<path class="st3" d="M372.18,356.8c0.14,0.66-0.25,1.29-1.03,1.46c-0.75,0.16-1.37-0.26-1.49-0.92
				c-0.16-0.68,0.23-1.31,0.99-1.47C371.42,355.7,372.02,356.11,372.18,356.8z M371.82,367.1l-1.64-7.65l2.38-0.51l1.64,7.65
				L371.82,367.1z"/>
			<path class="st3" d="M382.87,360.22c0.75,2.76-0.87,4.56-2.89,5.11c-2.21,0.6-4.3-0.39-4.96-2.83c-0.66-2.44,0.52-4.44,2.95-5.09
				C380.28,356.78,382.26,357.95,382.87,360.22z M377.43,361.78c0.35,1.3,1.16,2.12,2.16,1.85c0.91-0.25,1.25-1.32,0.88-2.68
				c-0.3-1.13-1.05-2.15-2.11-1.87C377.23,359.4,377.13,360.67,377.43,361.78z"/>
			<path class="st3" d="M384.05,358.45c-0.32-0.92-0.63-1.7-0.89-2.33l1.99-0.7l0.46,0.97l0.04-0.01c0.14-0.58,0.64-1.55,1.86-1.98
				c1.51-0.53,2.99,0.07,3.76,2.24l1.54,4.38l-2.29,0.81l-1.44-4.09c-0.33-0.95-0.89-1.48-1.72-1.19c-0.63,0.22-0.86,0.79-0.86,1.27
				c-0.01,0.16,0.04,0.39,0.11,0.61l1.5,4.26l-2.29,0.81L384.05,358.45z"/>
		</g>
		<g>
			<path class="st0" d="M222.9,265.33l10.4-2.83l0.75,2.75l-3.22,3.2c-0.93,0.92-2.06,1.89-3.11,2.67l0.01,0.05
				c1.33-0.53,2.72-0.96,4.29-1.38l3.04-0.83l0.59,2.16l-10.4,2.83l-0.67-2.47l3.41-3.31c0.94-0.92,2.1-1.96,3.18-2.81l-0.03-0.04
				c-1.36,0.43-2.82,0.87-4.52,1.33l-3.13,0.85L222.9,265.33z"/>
			<path class="st0" d="M229.65,277.04c-0.92,0.42-1.04,1.52-0.65,2.58c0.28,0.78,0.62,1.38,1.04,1.92l-1.44,0.86
				c-0.57-0.64-1.06-1.51-1.42-2.5c-0.9-2.5,0.03-4.45,2.33-5.28c1.87-0.67,4.35-0.26,5.27,2.29c0.86,2.38-0.66,3.95-2.48,4.61
				c-0.39,0.14-0.75,0.22-0.93,0.25L229.65,277.04z M232.19,279.17c0.56-0.2,1.4-0.78,1.02-1.83c-0.35-0.96-1.36-1.04-2-0.88
				L232.19,279.17z"/>
			<path class="st0" d="M236.93,282.98l-2.64,1.91c-0.67,0.49-1.39,0.99-2.15,1.49l0.01,0.03c0.88-0.23,1.79-0.4,2.56-0.55
				l3.27-0.59l0.81,1.74l-2.51,2.02c-0.71,0.56-1.42,1.12-2.17,1.64l0.01,0.03c0.86-0.27,1.73-0.5,2.61-0.71l3.1-0.69l1,2.16
				l-8.11,1.1l-0.96-2.08l2.19-1.82c0.62-0.5,1.2-0.92,2-1.47l-0.01-0.03c-0.95,0.28-1.67,0.43-2.42,0.55l-2.83,0.44l-0.96-2.08
				l6.15-5.34L236.93,282.98z"/>
		</g>
		<g>
			<path class="st0" d="M205.49,261.04c-0.29-0.41-0.67-1.37-0.86-2.67c-0.53-3.69,1.49-5.92,4.53-6.36c3.64-0.53,6.04,1.78,6.51,5
				c0.18,1.25,0.06,2.24-0.09,2.7l-1.99-0.21c0.13-0.52,0.23-1.23,0.1-2.08c-0.28-1.92-1.65-3.24-4.02-2.89
				c-2.14,0.31-3.3,1.77-2.99,3.92c0.11,0.73,0.38,1.51,0.64,1.96L205.49,261.04z"/>
			<path class="st0" d="M206.46,267.19l0.74-0.3l-0.01-0.05c-0.72-0.37-1.21-1.08-1.4-1.99c-0.33-1.55,0.6-2.71,1.83-2.97
				c1.99-0.42,3.32,1.16,3.88,3.87l0.11-0.02c0.41-0.09,0.94-0.43,0.69-1.6c-0.17-0.78-0.61-1.56-1.03-1.99l1.44-0.76
				c0.41,0.47,1.01,1.44,1.3,2.83c0.54,2.55-0.79,3.69-2.59,4.07l-2.66,0.56c-0.74,0.16-1.43,0.34-1.84,0.5L206.46,267.19z
				 M210.02,266.14c-0.25-1.26-0.75-2.16-1.68-1.97c-0.61,0.13-0.82,0.6-0.71,1.13c0.13,0.59,0.62,1,1.14,1.05
				c0.13,0,0.28-0.01,0.42-0.04L210.02,266.14z"/>
			<path class="st0" d="M212.45,270.13c0.99-0.28,1.82-0.55,2.51-0.78l0.57,2.03l-1.02,0.4l0.01,0.03c0.96,0.33,1.62,1.07,1.92,2.17
				c0.47,1.65-0.55,3.53-2.95,4.21c-2.74,0.78-4.52-0.6-5-2.28c-0.26-0.91-0.09-1.72,0.31-2.2l-0.01-0.03l-3.74,1.06l-0.66-2.34
				L212.45,270.13z M211.34,272.97c-0.18,0.05-0.35,0.12-0.48,0.19c-0.59,0.33-0.91,1.01-0.72,1.68c0.29,1.02,1.3,1.38,2.58,1.02
				c1.2-0.34,1.96-1.14,1.66-2.18c-0.19-0.66-0.85-1.11-1.58-1.07c-0.13,0-0.29,0.03-0.43,0.07L211.34,272.97z"/>
			<path class="st0" d="M211.73,285.3l0.69-0.4l-0.02-0.05c-0.76-0.27-1.34-0.92-1.65-1.79c-0.53-1.49,0.24-2.77,1.41-3.18
				c1.92-0.68,3.44,0.71,4.35,3.33l0.1-0.04c0.39-0.14,0.88-0.55,0.47-1.68c-0.27-0.75-0.81-1.46-1.28-1.84l1.33-0.95
				c0.47,0.41,1.19,1.29,1.67,2.63c0.87,2.46-0.3,3.75-2.03,4.37l-2.56,0.91c-0.71,0.25-1.38,0.52-1.75,0.74L211.73,285.3z
				 M215.12,283.8c-0.41-1.21-1.03-2.04-1.92-1.73c-0.59,0.21-0.74,0.7-0.55,1.21c0.2,0.57,0.75,0.91,1.27,0.89
				c0.13-0.01,0.27-0.04,0.41-0.09L215.12,283.8z"/>
			<path class="st0" d="M213.26,289.43c0.48-0.17,1.36-0.52,2.17-0.87l8.29-3.58l0.96,2.23l-4.1,1.77l0.01,0.03
				c0.8,0.16,1.52,0.74,1.95,1.74c0.74,1.72-0.14,3.6-2.35,4.53c-2.59,1.12-4.59,0.03-5.3-1.62c-0.36-0.84-0.4-1.78,0.23-2.66
				l-0.01-0.03l-1.04,0.34L213.26,289.43z M217.31,290.4c-0.15,0.06-0.27,0.14-0.38,0.22c-0.54,0.41-0.77,1.12-0.5,1.76
				c0.41,0.96,1.4,1.23,2.69,0.67c1.12-0.48,1.78-1.36,1.33-2.41c-0.26-0.6-0.96-0.96-1.67-0.83c-0.14,0.03-0.28,0.07-0.43,0.13
				L217.31,290.4z"/>
			<path class="st0" d="M217.32,298.51l7.02-3.46l1.08,2.18l-7.02,3.46L217.32,298.51z M227.39,296.34c-0.6,0.3-1.32,0.08-1.67-0.64
				c-0.34-0.69-0.08-1.39,0.53-1.67c0.62-0.33,1.32-0.1,1.67,0.6C228.27,295.34,228.02,296.02,227.39,296.34z"/>
			<path class="st0" d="M229.42,297.28l1.15,2.14l-10.02,5.36l-1.15-2.15L229.42,297.28z"/>
			<path class="st0" d="M221.6,306.68l6.78-3.91l1.22,2.11l-6.78,3.91L221.6,306.68z M231.51,303.86c-0.58,0.34-1.31,0.16-1.71-0.53
				c-0.38-0.67-0.17-1.38,0.42-1.7c0.6-0.37,1.32-0.19,1.71,0.49C232.32,302.8,232.12,303.49,231.51,303.86z"/>
			<path class="st0" d="M233.9,307.62l-1.9,1.19l0.93,1.48l-1.52,0.95l-0.93-1.48l-2.4,1.51c-0.8,0.5-1.05,0.92-0.65,1.55
				c0.16,0.26,0.32,0.44,0.44,0.58l-1.55,0.99c-0.28-0.2-0.65-0.65-1.02-1.23c-0.42-0.66-0.54-1.36-0.4-1.9
				c0.15-0.63,0.67-1.22,1.61-1.8l2.71-1.7l-0.55-0.88l1.52-0.95l0.55,0.88l1.44-0.9L233.9,307.62z"/>
			<path class="st0" d="M234.76,312.97l-2.46,3.17c-0.3,0.37-0.68,0.83-0.97,1.15l0.03,0.04c0.4-0.15,0.96-0.39,1.39-0.55l3.69-1.43
				l1.5,2.13l-5.26,1.48c-3.18,0.88-4.63,0.98-5.78,0.72c-1.09-0.27-1.82-0.85-2.23-1.3l1.39-1.61c0.21,0.22,0.55,0.45,0.95,0.62
				c0.37,0.19,0.91,0.3,1.38,0.26c0.14,0,0.27-0.03,0.36-0.1c0.06-0.05,0.16-0.13,0.26-0.32l4.19-6.47L234.76,312.97z"/>
		</g>
		<g>
			<path class="st3" d="M445.88,306.25c0.36-0.83,0.92-1.86,1.58-2.9c1.1-1.73,2.12-2.65,3.34-3.11c1.3-0.5,2.8-0.38,4.41,0.64
				c1.74,1.11,2.54,2.51,2.73,3.86c0.19,1.47-0.36,3.16-1.49,4.95c-0.68,1.07-1.23,1.78-1.62,2.25L445.88,306.25z M454.62,308.9
				c0.15-0.15,0.33-0.43,0.5-0.69c1.2-1.86,0.94-3.72-1.23-5.1c-1.88-1.21-3.58-0.74-4.71,1.03c-0.29,0.46-0.44,0.78-0.51,0.98
				L454.62,308.9z"/>
			<path class="st3" d="M459.05,298.99c0.93,0.4,1.82-0.25,2.35-1.25c0.39-0.73,0.61-1.38,0.73-2.06l1.61,0.49
				c-0.09,0.86-0.41,1.79-0.91,2.73c-1.25,2.34-3.32,2.97-5.48,1.82c-1.75-0.93-3.11-3.05-1.83-5.45c1.19-2.23,3.37-2.15,5.08-1.25
				c0.37,0.19,0.67,0.41,0.81,0.52L459.05,298.99z M458.92,295.68c-0.52-0.28-1.52-0.52-2.04,0.47c-0.48,0.9,0.14,1.71,0.69,2.07
				L458.92,295.68z"/>
			<path class="st3" d="M460.95,284.2c0.44,0.23,1.03,0.53,2.09,1l3.99,1.77c1.37,0.61,2.38,1.39,2.74,2.51
				c0.32,1.09,0.05,2.25-0.42,3.3c-0.42,0.94-1.05,1.85-1.7,2.33l-1.49-1.19c0.46-0.34,1.09-1,1.46-1.83
				c0.47-1.05,0.26-2.11-1.06-2.7l-0.47-0.21l-0.01,0.03c0.41,0.69,0.44,1.53,0.08,2.35c-0.79,1.77-2.78,2.39-4.84,1.47
				c-2.3-1.02-3.09-3.16-2.32-4.91c0.44-0.98,1.13-1.41,1.88-1.51l0.01-0.03l-0.82-0.45L460.95,284.2z M462.85,287.78
				c-0.15-0.07-0.3-0.12-0.43-0.14c-0.66-0.1-1.24,0.15-1.51,0.76c-0.36,0.8,0.08,1.79,1.38,2.37c1.07,0.47,2.13,0.32,2.55-0.62
				c0.25-0.57,0.08-1.19-0.39-1.57c-0.13-0.13-0.36-0.25-0.55-0.33L462.85,287.78z"/>
			<path class="st3" d="M464,283.41c-1.08-0.4-1.79-0.64-2.44-0.84l0.74-1.96l1.38,0.43l0.02-0.06c-0.92-0.77-1.04-1.84-0.77-2.54
				c0.08-0.21,0.12-0.31,0.21-0.47l2.14,0.8c-0.09,0.15-0.19,0.34-0.29,0.59c-0.31,0.84-0.08,1.58,0.57,1.99
				c0.14,0.09,0.31,0.17,0.49,0.24l3.72,1.39l-0.85,2.28L464,283.41z"/>
			<path class="st3" d="M472.41,275.12l-0.79-0.1l-0.01,0.05c0.44,0.67,0.53,1.54,0.25,2.42c-0.47,1.51-1.85,2.07-3.04,1.7
				c-1.94-0.6-2.33-2.64-1.49-5.27l-0.11-0.03c-0.4-0.12-1.03-0.09-1.38,1.06c-0.24,0.76-0.23,1.65-0.08,2.24l-1.63-0.04
				c-0.13-0.61-0.18-1.75,0.25-3.11c0.78-2.49,2.49-2.83,4.25-2.28l2.59,0.81c0.72,0.22,1.41,0.41,1.85,0.46L472.41,275.12z
				 M468.8,274.3c-0.4,1.22-0.4,2.25,0.5,2.53c0.6,0.19,1.01-0.12,1.17-0.64c0.18-0.58-0.05-1.17-0.48-1.47
				c-0.11-0.07-0.25-0.13-0.38-0.17L468.8,274.3z"/>
			<path class="st3" d="M464.37,260.85l8.78,2.07c0.85,0.2,1.77,0.38,2.29,0.48l-0.5,2.1l-1.15-0.16l-0.01,0.03
				c0.74,0.68,0.96,1.71,0.73,2.69c-0.43,1.8-2.31,2.89-4.68,2.33c-2.57-0.59-3.67-2.54-3.24-4.37c0.22-0.93,0.72-1.59,1.33-1.81
				l0.01-0.03l-4.13-0.97L464.37,260.85z M470.47,264.79c-0.13-0.03-0.3-0.05-0.43-0.07c-0.67-0.01-1.32,0.38-1.49,1.11
				c-0.25,1.07,0.58,1.86,1.78,2.15c1.29,0.31,2.25-0.14,2.48-1.12c0.16-0.68-0.18-1.34-0.81-1.64c-0.16-0.09-0.33-0.14-0.53-0.19
				L470.47,264.79z"/>
			<path class="st3" d="M476.59,256.68l-0.8,0.02l-0.01,0.05c0.53,0.61,0.74,1.45,0.59,2.37c-0.25,1.56-1.54,2.31-2.77,2.11
				c-2.01-0.33-2.68-2.28-2.22-5.01l-0.11-0.02c-0.41-0.07-1.03,0.06-1.22,1.25c-0.13,0.79,0,1.67,0.24,2.23l-1.62,0.19
				c-0.21-0.59-0.42-1.71-0.19-3.11c0.42-2.58,2.07-3.15,3.88-2.86l2.69,0.44c0.74,0.12,1.46,0.2,1.9,0.19L476.59,256.68z
				 M472.89,256.37c-0.22,1.26-0.08,2.29,0.85,2.44c0.62,0.1,0.98-0.26,1.07-0.8c0.1-0.6-0.22-1.15-0.68-1.39
				c-0.12-0.05-0.26-0.09-0.4-0.11L472.89,256.37z"/>
			<path class="st3" d="M467.45,248.72l2.23,0.23l0.18-1.73l1.78,0.19l-0.18,1.74l2.82,0.3c0.94,0.1,1.39-0.08,1.47-0.81
				c0.03-0.3,0.03-0.54,0.01-0.72l1.83,0.18c0.09,0.33,0.11,0.91,0.04,1.6c-0.08,0.78-0.42,1.4-0.86,1.74
				c-0.51,0.4-1.28,0.54-2.38,0.42l-3.18-0.34l-0.11,1.04l-1.78-0.19l0.11-1.04l-1.69-0.18L467.45,248.72z"/>
			<path class="st3" d="M467.95,243.22c0.67,0.04,1.18,0.59,1.13,1.39c-0.05,0.77-0.63,1.24-1.29,1.18c-0.7-0.03-1.2-0.57-1.15-1.36
				S467.24,243.19,467.95,243.22z M477.76,246.37l-7.81-0.51l0.16-2.43l7.8,0.51L477.76,246.37z"/>
			<path class="st3" d="M474.15,233.87c2.86,0.03,4.15,2.08,4.13,4.17c-0.03,2.29-1.55,4.03-4.08,4c-2.53-0.03-4.13-1.71-4.1-4.22
				C470.14,235.43,471.8,233.85,474.15,233.87z M474.17,239.54c1.34,0.02,2.36-0.53,2.37-1.57c0.01-0.95-0.93-1.56-2.33-1.58
				c-1.17-0.01-2.36,0.42-2.37,1.53C471.82,239.08,473.02,239.53,474.17,239.54z"/>
			<path class="st3" d="M472.77,232.24c-0.98,0.06-1.8,0.15-2.49,0.22l-0.13-2.11l1.06-0.18l0-0.05c-0.51-0.29-1.32-1.04-1.4-2.33
				c-0.1-1.6,0.88-2.86,3.18-3.01l4.63-0.29l0.15,2.43l-4.33,0.27c-1.01,0.06-1.67,0.46-1.62,1.34c0.04,0.67,0.53,1.04,0.99,1.17
				c0.15,0.05,0.39,0.07,0.61,0.06l4.5-0.28l0.15,2.43L472.77,232.24z"/>
		</g>
		<g>
			<path class="st3" d="M344.1,447.16c-0.67,0-1.34-0.01-2.01-0.02l0.03-2c0.66,0.01,1.33,0.01,1.99,0.02L344.1,447.16z
				 M348.12,447.14l-0.03-2c0.66-0.01,1.33-0.02,1.99-0.04l0.05,2C349.45,447.12,348.79,447.13,348.12,447.14z M338.07,447.05
				c-0.67-0.02-1.34-0.05-2.01-0.07l0.09-2c0.66,0.03,1.32,0.05,1.99,0.07L338.07,447.05z M354.13,446.97l-0.08-2
				c0.66-0.03,1.33-0.06,1.99-0.09l0.11,2C355.47,446.91,354.8,446.94,354.13,446.97z M332.05,446.77
				c-0.67-0.04-1.34-0.08-2.01-0.13l0.14-1.99c0.66,0.05,1.32,0.09,1.98,0.13L332.05,446.77z M360.14,446.62l-0.14-1.99
				c0.66-0.05,1.32-0.1,1.98-0.15l0.16,1.99C361.48,446.53,360.81,446.58,360.14,446.62z M326.04,446.32
				c-0.67-0.06-1.34-0.12-2-0.19l0.2-1.99c0.66,0.07,1.32,0.13,1.98,0.19L326.04,446.32z M366.15,446.11l-0.2-1.99
				c0.66-0.07,1.32-0.14,1.98-0.21l0.22,1.99C367.48,445.97,366.82,446.04,366.15,446.11z M320.05,445.7
				c-0.67-0.08-1.33-0.16-1.99-0.24l0.25-1.98c0.66,0.08,1.32,0.16,1.98,0.24L320.05,445.7z M372.14,445.43l-0.26-1.98
				c0.66-0.09,1.32-0.17,1.97-0.26l0.28,1.98C373.47,445.25,372.8,445.34,372.14,445.43z M314.07,444.91
				c-0.66-0.1-1.33-0.2-1.99-0.3l0.31-1.98c0.66,0.1,1.31,0.2,1.97,0.3L314.07,444.91z M378.11,444.57l-0.31-1.97
				c0.66-0.1,1.31-0.21,1.96-0.32l0.33,1.97C379.43,444.36,378.77,444.47,378.11,444.57z M308.12,443.94
				c-0.66-0.12-1.32-0.24-1.98-0.36l0.37-1.97c0.65,0.12,1.3,0.24,1.96,0.36L308.12,443.94z M384.05,443.54l-0.37-1.96
				c0.65-0.12,1.3-0.25,1.96-0.38l0.39,1.96C385.36,443.29,384.7,443.42,384.05,443.54z M302.2,442.81
				c-0.66-0.14-1.31-0.27-1.97-0.42l0.42-1.96c0.65,0.14,1.3,0.28,1.95,0.41L302.2,442.81z M389.95,442.35l-0.43-1.95
				c0.65-0.14,1.3-0.29,1.94-0.43l0.44,1.95C391.26,442.06,390.61,442.2,389.95,442.35z M296.32,441.51
				c-0.65-0.15-1.3-0.31-1.95-0.47l0.48-1.94c0.64,0.16,1.29,0.31,1.93,0.47L296.32,441.51z M395.82,440.98l-0.48-1.94
				c0.64-0.16,1.29-0.32,1.93-0.49l0.5,1.94C397.12,440.65,396.47,440.82,395.82,440.98z M290.47,440.03
				c-0.65-0.17-1.29-0.35-1.94-0.53l0.53-1.93c0.64,0.18,1.28,0.35,1.92,0.52L290.47,440.03z M401.65,439.44l-0.54-1.93
				c0.64-0.18,1.28-0.36,1.91-0.54l0.56,1.92C402.94,439.08,402.3,439.27,401.65,439.44z M284.67,438.39
				c-0.64-0.19-1.28-0.39-1.92-0.58l0.59-1.91c0.63,0.2,1.27,0.39,1.9,0.58L284.67,438.39z M407.43,437.74l-0.59-1.91
				c0.63-0.2,1.27-0.4,1.9-0.6l0.61,1.9C408.71,437.34,408.07,437.54,407.43,437.74z M278.9,436.58c-0.64-0.21-1.28-0.42-1.91-0.64
				l0.64-1.89c0.63,0.21,1.26,0.43,1.9,0.64L278.9,436.58z M413.16,435.87l-0.65-1.89c0.63-0.21,1.25-0.43,1.88-0.65l0.67,1.89
				C414.43,435.44,413.8,435.65,413.16,435.87z M273.19,434.6c-0.63-0.23-1.26-0.46-1.89-0.7l0.7-1.88
				c0.63,0.23,1.25,0.46,1.88,0.69L273.19,434.6z M418.84,433.84l-0.7-1.87c0.62-0.23,1.24-0.47,1.86-0.71l0.72,1.87
				C420.09,433.36,419.47,433.6,418.84,433.84z M267.53,432.45c-0.63-0.25-1.25-0.5-1.87-0.75l0.76-1.85
				c0.62,0.25,1.23,0.5,1.85,0.74L267.53,432.45z M424.45,431.64l-0.75-1.85c0.61-0.25,1.22-0.5,1.83-0.76l0.78,1.84
				C425.69,431.13,425.07,431.39,424.45,431.64z M261.94,430.15c-0.62-0.27-1.23-0.53-1.85-0.81l0.81-1.83
				c0.61,0.27,1.22,0.53,1.83,0.8L261.94,430.15z M429.98,429.29l-0.81-1.83c0.6-0.27,1.21-0.54,1.81-0.81l0.83,1.82
				C431.2,428.75,430.59,429.02,429.98,429.29z M256.42,427.68c-0.61-0.28-1.22-0.57-1.82-0.86l0.86-1.8c0.6,0.29,1.2,0.57,1.8,0.85
				L256.42,427.68z M435.44,426.79l-0.86-1.8c0.6-0.29,1.19-0.57,1.79-0.86l0.88,1.8C436.64,426.21,436.04,426.5,435.44,426.79z
				 M250.98,425.06c-0.6-0.3-1.2-0.6-1.8-0.91l0.91-1.78c0.59,0.3,1.19,0.6,1.78,0.9L250.98,425.06z M440.82,424.12l-0.91-1.78
				c0.59-0.3,1.18-0.61,1.76-0.91l0.93,1.77C442.01,423.51,441.42,423.82,440.82,424.12z M245.62,422.28
				c-0.59-0.32-1.18-0.64-1.77-0.96l0.96-1.75c0.58,0.32,1.17,0.64,1.75,0.95L245.62,422.28z M446.13,421.31l-0.96-1.75
				c0.58-0.32,1.16-0.64,1.74-0.96l0.98,1.74C447.3,420.66,446.72,420.98,446.13,421.31z M240.34,419.34
				c-0.58-0.33-1.16-0.67-1.74-1.01l1.01-1.73c0.58,0.34,1.15,0.67,1.73,1L240.34,419.34z M451.36,418.34l-1.02-1.72
				c0.57-0.34,1.14-0.67,1.71-1.01l1.03,1.71C452.51,417.66,451.94,418,451.36,418.34z M235.14,416.26
				c-0.57-0.35-1.14-0.7-1.71-1.06l1.06-1.7c0.56,0.35,1.13,0.7,1.69,1.05L235.14,416.26z M456.5,415.22l-1.06-1.7
				c0.56-0.35,1.12-0.71,1.68-1.06l1.08,1.69C457.63,414.51,457.07,414.87,456.5,415.22z M230.04,413.03
				c-0.56-0.37-1.12-0.74-1.68-1.11l1.11-1.66c0.55,0.37,1.11,0.74,1.66,1.1L230.04,413.03z M461.56,411.95l-1.11-1.66
				c0.55-0.37,1.1-0.74,1.65-1.11l1.13,1.65C462.67,411.21,462.11,411.58,461.56,411.95z M225.04,409.66
				c-0.55-0.38-1.1-0.77-1.65-1.16l1.16-1.63c0.54,0.38,1.09,0.77,1.63,1.15L225.04,409.66z M466.51,408.55l-1.15-1.63
				c0.54-0.38,1.08-0.77,1.61-1.15l1.17,1.62C467.6,407.77,467.06,408.16,466.51,408.55z M220.13,406.15
				c-0.54-0.4-1.08-0.8-1.61-1.2l1.21-1.6c0.53,0.4,1.06,0.8,1.6,1.19L220.13,406.15z M471.37,405l-1.2-1.6
				c0.53-0.4,1.06-0.8,1.58-1.2l1.22,1.59C472.44,404.19,471.91,404.6,471.37,405z M215.33,402.5c-0.53-0.41-1.05-0.83-1.58-1.25
				l1.25-1.56c0.52,0.41,1.04,0.83,1.56,1.24L215.33,402.5z M476.13,401.31l-1.25-1.56c0.52-0.41,1.03-0.83,1.55-1.25l1.26,1.55
				C477.18,400.47,476.66,400.89,476.13,401.31z M210.64,398.71c-0.51-0.43-1.03-0.86-1.54-1.29l1.29-1.53
				c0.51,0.43,1.02,0.86,1.53,1.28L210.64,398.71z M480.79,397.49l-1.29-1.53c0.51-0.43,1.01-0.86,1.51-1.29l1.3,1.52
				C481.81,396.62,481.3,397.06,480.79,397.49z M206.05,394.8c-0.5-0.44-1.01-0.89-1.5-1.34l1.34-1.49
				c0.49,0.44,0.99,0.88,1.49,1.32L206.05,394.8z M485.33,393.54l-1.33-1.49c0.49-0.44,0.99-0.89,1.48-1.33l1.35,1.48
				C486.33,392.64,485.83,393.09,485.33,393.54z M201.58,390.75c-0.49-0.46-0.98-0.92-1.46-1.38l1.38-1.45
				c0.48,0.46,0.96,0.91,1.45,1.36L201.58,390.75z M489.76,389.45l-1.38-1.45c0.48-0.46,0.96-0.92,1.44-1.38l1.39,1.44
				C490.73,388.53,490.25,388.99,489.76,389.45z M197.23,386.58c-0.48-0.47-0.95-0.94-1.42-1.42l1.42-1.41
				c0.47,0.47,0.94,0.94,1.41,1.4L197.23,386.58z M494.07,385.25l-1.42-1.41c0.47-0.47,0.93-0.94,1.4-1.42l1.43,1.4
				C495.02,384.3,494.55,384.77,494.07,385.25z M193,382.29c-0.46-0.48-0.92-0.97-1.38-1.46l1.46-1.37
				c0.45,0.48,0.91,0.96,1.37,1.44L193,382.29z M498.27,380.92l-1.46-1.37c0.45-0.48,0.91-0.97,1.36-1.46l1.47,1.36
				C499.18,379.94,498.73,380.43,498.27,380.92z M188.89,377.88c-0.45-0.5-0.9-1-1.34-1.5l1.5-1.33c0.44,0.5,0.88,0.99,1.33,1.48
				L188.89,377.88z M502.34,376.47l-1.5-1.33c0.44-0.5,0.88-1,1.32-1.5l1.51,1.31C503.22,375.47,502.78,375.97,502.34,376.47z
				 M184.92,373.36c-0.43-0.51-0.87-1.02-1.3-1.53l1.53-1.29c0.43,0.51,0.85,1.01,1.29,1.52L184.92,373.36z M506.28,371.91
				l-1.54-1.28c0.43-0.51,0.85-1.02,1.27-1.53l1.54,1.27C507.14,370.88,506.71,371.39,506.28,371.91z M181.07,368.73
				c-0.42-0.52-0.84-1.04-1.25-1.57l1.57-1.24c0.41,0.52,0.83,1.04,1.24,1.55L181.07,368.73z M510.09,367.23l-1.57-1.24
				c0.41-0.52,0.82-1.04,1.23-1.57l1.58,1.23C510.92,366.18,510.5,366.71,510.09,367.23z M177.36,363.99
				c-0.41-0.53-0.81-1.07-1.21-1.6l1.61-1.19c0.39,0.53,0.79,1.06,1.19,1.58L177.36,363.99z M513.76,362.45l-1.6-1.2
				c0.4-0.53,0.79-1.07,1.18-1.6l1.62,1.18C514.56,361.37,514.17,361.91,513.76,362.45z M173.78,359.14
				c-0.39-0.54-0.78-1.09-1.16-1.64l1.64-1.15c0.38,0.54,0.76,1.08,1.15,1.62L173.78,359.14z M517.3,357.56l-1.64-1.15
				c0.38-0.54,0.76-1.09,1.14-1.64l1.65,1.13C518.07,356.47,517.69,357.02,517.3,357.56z M170.35,354.2
				c-0.37-0.55-0.75-1.11-1.11-1.67l1.67-1.1c0.36,0.55,0.73,1.1,1.1,1.65L170.35,354.2z M520.7,352.58l-1.67-1.1
				c0.37-0.55,0.73-1.11,1.09-1.67l1.68,1.09C521.44,351.46,521.07,352.02,520.7,352.58z M167.05,349.17
				c-0.36-0.56-0.71-1.13-1.07-1.7l1.7-1.05c0.35,0.56,0.7,1.12,1.05,1.68L167.05,349.17z M523.96,347.49l-1.7-1.05
				c0.35-0.57,0.7-1.13,1.04-1.7l1.71,1.04C524.66,346.35,524.31,346.92,523.96,347.49z M163.91,344.04
				c-0.34-0.57-0.68-1.15-1.02-1.73l1.73-1.01c0.33,0.57,0.67,1.14,1.01,1.71L163.91,344.04z M527.07,342.32l-1.73-1
				c0.33-0.57,0.67-1.15,0.99-1.73l1.74,0.99C527.74,341.16,527.4,341.74,527.07,342.32z M160.91,338.83
				c-0.32-0.58-0.65-1.17-0.97-1.76l1.76-0.96c0.32,0.58,0.63,1.16,0.96,1.74L160.91,338.83z M530.03,337.05l-1.76-0.95
				c0.32-0.58,0.63-1.17,0.94-1.76l1.77,0.94C530.66,335.87,530.35,336.46,530.03,337.05z M158.07,333.53
				c-0.31-0.59-0.61-1.19-0.91-1.78l1.78-0.9c0.3,0.59,0.6,1.18,0.91,1.77L158.07,333.53z M532.83,331.71l-1.78-0.91
				c0.3-0.59,0.6-1.19,0.89-1.78l1.79,0.89C533.44,330.51,533.14,331.11,532.83,331.71z M155.37,328.16
				c-0.29-0.6-0.58-1.2-0.86-1.81l1.81-0.86c0.28,0.6,0.57,1.2,0.86,1.79L155.37,328.16z M535.49,326.28l-1.81-0.85
				c0.28-0.6,0.56-1.21,0.84-1.81l1.82,0.84C536.06,325.06,535.77,325.67,535.49,326.28z M152.84,322.72
				c-0.27-0.61-0.54-1.22-0.81-1.83l1.83-0.8c0.26,0.61,0.53,1.21,0.8,1.81L152.84,322.72z M537.98,320.77l-1.83-0.8
				c0.27-0.61,0.53-1.22,0.79-1.83l1.84,0.78C538.52,319.54,538.25,320.16,537.98,320.77z M150.46,317.2
				c-0.26-0.62-0.51-1.24-0.76-1.86l1.85-0.75c0.25,0.62,0.5,1.23,0.75,1.84L150.46,317.2z M540.32,315.2l-1.86-0.74
				c0.25-0.62,0.49-1.24,0.74-1.86l1.86,0.73C540.82,313.95,540.57,314.57,540.32,315.2z M148.23,311.6
				c-0.24-0.63-0.47-1.25-0.71-1.88l1.88-0.7c0.23,0.62,0.46,1.24,0.7,1.86L148.23,311.6z M542.5,309.55l-1.88-0.69
				c0.23-0.63,0.46-1.25,0.68-1.88l1.88,0.67C542.96,308.29,542.73,308.92,542.5,309.55z M146.17,305.94
				c-0.22-0.63-0.44-1.26-0.65-1.9l1.89-0.64c0.21,0.63,0.43,1.26,0.65,1.88L146.17,305.94z M544.51,303.85l-1.89-0.64
				c0.21-0.63,0.42-1.26,0.63-1.9l1.9,0.62C544.94,302.57,544.72,303.21,544.51,303.85z M144.27,300.22c-0.2-0.64-0.4-1.28-0.6-1.92
				l1.91-0.58c0.19,0.63,0.39,1.27,0.59,1.9L144.27,300.22z M546.36,298.08l-1.91-0.58c0.19-0.64,0.38-1.27,0.57-1.91l1.92,0.56
				C546.74,296.8,546.55,297.44,546.36,298.08z M142.53,294.45c-0.18-0.64-0.36-1.29-0.54-1.94l1.93-0.53
				c0.17,0.64,0.35,1.28,0.54,1.92L142.53,294.45z M548.03,292.29l-1.93-0.53c0.17-0.64,0.35-1.28,0.52-1.92l1.93,0.51
				C548.38,291,548.2,291.64,548.03,292.29z M140.97,288.63c-0.17-0.65-0.33-1.3-0.49-1.95l1.94-0.47c0.16,0.65,0.32,1.29,0.48,1.93
				L140.97,288.63z M549.53,286.45l-1.94-0.47c0.16-0.65,0.31-1.29,0.46-1.94l1.95,0.45C549.84,285.15,549.69,285.8,549.53,286.45z
				 M139.57,282.76c-0.15-0.65-0.29-1.31-0.43-1.96l1.96-0.42c0.14,0.65,0.28,1.3,0.42,1.94L139.57,282.76z M550.87,280.58
				l-1.96-0.42c0.14-0.65,0.27-1.3,0.4-1.95l1.96,0.39C551.14,279.27,551.01,279.92,550.87,280.58z M138.34,276.86
				c-0.13-0.66-0.25-1.31-0.37-1.97l1.97-0.36c0.12,0.65,0.24,1.31,0.37,1.96L138.34,276.86z M552.03,274.66l-1.97-0.36
				c0.12-0.65,0.23-1.31,0.35-1.96l1.97,0.34C552.27,273.34,552.15,274,552.03,274.66z M137.28,270.93
				c-0.11-0.66-0.21-1.32-0.31-1.98l1.98-0.3c0.1,0.66,0.21,1.31,0.31,1.97L137.28,270.93z M553.03,268.72l-1.98-0.3
				c0.1-0.66,0.2-1.31,0.29-1.97l1.98,0.28C553.23,267.39,553.13,268.05,553.03,268.72z M136.39,264.97
				c-0.09-0.66-0.18-1.33-0.26-1.99l1.98-0.25c0.08,0.66,0.17,1.32,0.26,1.97L136.39,264.97z M553.85,262.75l-1.98-0.25
				c0.08-0.66,0.16-1.31,0.24-1.97l1.99,0.22C554.01,261.42,553.94,262.08,553.85,262.75z M135.68,258.98
				c-0.07-0.67-0.14-1.33-0.2-2l1.99-0.19c0.06,0.66,0.13,1.32,0.2,1.98L135.68,258.98z M554.51,256.76l-1.99-0.19
				c0.06-0.66,0.12-1.32,0.18-1.98l1.99,0.17C554.63,255.42,554.57,256.09,554.51,256.76z M135.13,252.98
				c-0.05-0.67-0.1-1.34-0.14-2.01l2-0.13c0.04,0.66,0.09,1.32,0.14,1.98L135.13,252.98z M554.99,250.75l-2-0.13
				c0.04-0.66,0.08-1.33,0.12-1.99l2,0.11C555.07,249.41,555.03,250.08,554.99,250.75z M134.76,246.96
				c-0.03-0.67-0.06-1.34-0.09-2.01l2-0.07c0.02,0.66,0.05,1.32,0.09,1.99L134.76,246.96z M555.3,244.73l-2-0.08
				c0.03-0.66,0.05-1.32,0.07-1.99l2,0.05C555.35,243.39,555.32,244.06,555.3,244.73z M134.55,240.95
				c-0.01-0.67-0.02-1.34-0.03-2.01l2-0.02c0.01,0.66,0.02,1.32,0.03,1.99L134.55,240.95z M555.44,238.7l-2-0.02
				c0.01-0.66,0.01-1.33,0.01-1.99h2C555.45,237.36,555.45,238.03,555.44,238.7z M553.45,236.22c0-0.66-0.01-1.33-0.01-1.99l2-0.02
				c0.01,0.67,0.01,1.34,0.01,2.01L553.45,236.22z M136.52,234.94l-2-0.02c0.01-0.67,0.01-1.34,0.03-2.01l2,0.04
				C136.53,233.61,136.53,234.27,136.52,234.94z M553.35,230.25c-0.02-0.66-0.04-1.32-0.07-1.98l2-0.08c0.03,0.67,0.05,1.33,0.07,2
				L553.35,230.25z M136.65,228.97l-2-0.07c0.02-0.67,0.05-1.34,0.08-2.01l2,0.09C136.7,227.64,136.68,228.31,136.65,228.97z
				 M553.09,224.29c-0.04-0.66-0.08-1.33-0.13-1.99l2-0.13c0.04,0.67,0.09,1.33,0.13,2L553.09,224.29z M136.95,223.01l-2-0.13
				c0.04-0.67,0.09-1.34,0.14-2.01l1.99,0.15C137.04,221.68,137,222.34,136.95,223.01z M552.65,218.34
				c-0.06-0.66-0.12-1.32-0.18-1.98l1.99-0.19c0.07,0.67,0.13,1.33,0.18,2L552.65,218.34z M137.43,217.06l-1.99-0.19
				c0.06-0.67,0.13-1.33,0.2-2l1.99,0.21C137.55,215.73,137.49,216.39,137.43,217.06z M552.05,212.4c-0.08-0.66-0.16-1.32-0.24-1.98
				l1.98-0.25c0.08,0.66,0.16,1.33,0.24,1.99L552.05,212.4z M138.07,211.12l-1.98-0.24c0.08-0.67,0.17-1.33,0.25-1.99l1.98,0.26
				C138.23,209.8,138.15,210.46,138.07,211.12z M551.28,206.48c-0.1-0.66-0.19-1.31-0.3-1.97l1.98-0.3c0.1,0.66,0.2,1.32,0.3,1.99
				L551.28,206.48z M138.88,205.2l-1.98-0.3c0.1-0.66,0.2-1.32,0.31-1.99l1.97,0.32C139.08,203.89,138.97,204.55,138.88,205.2z
				 M550.33,200.58c-0.11-0.65-0.23-1.31-0.35-1.96l1.97-0.36c0.12,0.66,0.24,1.32,0.36,1.98L550.33,200.58z M139.85,199.31
				l-1.97-0.36c0.12-0.66,0.24-1.32,0.37-1.97l1.96,0.37C140.09,198.01,139.97,198.66,139.85,199.31z M549.22,194.72
				c-0.13-0.65-0.27-1.3-0.41-1.95l1.96-0.42c0.14,0.65,0.28,1.31,0.41,1.97L549.22,194.72z M141,193.45l-1.96-0.41
				c0.14-0.66,0.28-1.31,0.42-1.96l1.95,0.43C141.28,192.16,141.14,192.81,141,193.45z M547.94,188.89
				c-0.15-0.65-0.31-1.29-0.46-1.94l1.94-0.47c0.16,0.65,0.31,1.3,0.47,1.95L547.94,188.89z M142.32,187.63l-1.94-0.47
				c0.16-0.65,0.32-1.3,0.48-1.95l1.94,0.49C142.63,186.34,142.47,186.99,142.32,187.63z M546.5,183.1
				c-0.17-0.64-0.34-1.28-0.52-1.92l1.93-0.53c0.18,0.65,0.35,1.29,0.52,1.94L546.5,183.1z M143.8,181.85l-1.93-0.52
				c0.18-0.65,0.35-1.29,0.54-1.94l1.92,0.54C144.15,180.57,143.98,181.21,143.8,181.85z M544.88,177.35
				c-0.19-0.64-0.38-1.27-0.58-1.91l1.91-0.59c0.2,0.64,0.39,1.28,0.58,1.92L544.88,177.35z M145.45,176.11l-1.91-0.58
				c0.2-0.64,0.39-1.29,0.59-1.93l1.91,0.6C145.84,174.84,145.65,175.47,145.45,176.11z M543.1,171.65
				c-0.21-0.63-0.42-1.26-0.63-1.89l1.89-0.64c0.21,0.63,0.43,1.27,0.64,1.91L543.1,171.65z M147.27,170.4l-1.9-0.64
				c0.21-0.64,0.43-1.27,0.65-1.91l1.89,0.65C147.7,169.14,147.49,169.77,147.27,170.4z M541.16,166c-0.22-0.62-0.45-1.25-0.68-1.87
				l1.88-0.7c0.23,0.63,0.46,1.26,0.69,1.89L541.16,166z M149.26,164.75l-1.88-0.69c0.23-0.63,0.47-1.26,0.71-1.89l1.87,0.71
				C149.72,163.5,149.49,164.12,149.26,164.75z M539.06,160.42c-0.24-0.62-0.49-1.23-0.74-1.85l1.85-0.75
				c0.25,0.62,0.5,1.24,0.75,1.87L539.06,160.42z M151.41,159.15l-1.86-0.74c0.25-0.62,0.5-1.25,0.76-1.87l1.85,0.76
				C151.91,157.92,151.66,158.54,151.41,159.15z M536.79,154.9c-0.26-0.61-0.52-1.21-0.79-1.82l1.83-0.8
				c0.27,0.61,0.53,1.22,0.79,1.84L536.79,154.9z M153.72,153.63l-1.83-0.8c0.27-0.62,0.54-1.23,0.81-1.85l1.82,0.82
				C154.25,152.41,153.98,153.02,153.72,153.63z M534.38,149.47c-0.28-0.6-0.56-1.2-0.84-1.8l1.81-0.86
				c0.29,0.6,0.57,1.21,0.85,1.82L534.38,149.47z M156.18,148.17l-1.81-0.85c0.29-0.61,0.57-1.21,0.87-1.82l1.8,0.87
				C156.75,146.97,156.47,147.57,156.18,148.17z M531.81,144.11c-0.29-0.59-0.59-1.18-0.89-1.77l1.78-0.91
				c0.3,0.59,0.6,1.19,0.9,1.79L531.81,144.11z M158.81,142.79l-1.79-0.9c0.3-0.6,0.61-1.2,0.92-1.79l1.78,0.92
				C159.41,141.61,159.11,142.2,158.81,142.79z M529.09,138.81c-0.31-0.58-0.62-1.17-0.94-1.75l1.76-0.96
				c0.32,0.59,0.64,1.17,0.95,1.76L529.09,138.81z M161.58,137.49l-1.76-0.95c0.32-0.59,0.64-1.18,0.97-1.77l1.75,0.97
				C162.22,136.32,161.9,136.91,161.58,137.49z M526.21,133.6c-0.33-0.57-0.66-1.15-0.99-1.72l1.73-1.01c0.34,0.58,0.67,1.16,1,1.74
				L526.21,133.6z M164.51,132.27l-1.73-1c0.34-0.58,0.68-1.16,1.02-1.74l1.72,1.02C165.18,131.13,164.84,131.7,164.51,132.27z
				 M523.19,128.46c-0.34-0.57-0.69-1.13-1.04-1.69l1.7-1.05c0.35,0.57,0.7,1.14,1.05,1.71L523.19,128.46z M167.58,127.15l-1.7-1.05
				c0.35-0.57,0.71-1.14,1.07-1.71l1.69,1.07C168.28,126.02,167.93,126.58,167.58,127.15z M520.02,123.42
				c-0.36-0.56-0.72-1.11-1.09-1.66l1.67-1.1c0.37,0.56,0.73,1.12,1.1,1.68L520.02,123.42z M170.8,122.11l-1.67-1.1
				c0.37-0.56,0.74-1.12,1.12-1.68l1.66,1.12C171.53,121,171.17,121.55,170.8,122.11z M516.71,118.47
				c-0.38-0.54-0.75-1.09-1.13-1.63l1.63-1.15c0.38,0.55,0.77,1.1,1.15,1.65L516.71,118.47z M174.16,117.16l-1.64-1.15
				c0.38-0.55,0.77-1.1,1.16-1.64l1.63,1.17C174.93,116.08,174.54,116.62,174.16,117.16z M513.25,113.61
				c-0.39-0.53-0.79-1.07-1.18-1.6l1.6-1.2c0.4,0.54,0.8,1.07,1.19,1.61L513.25,113.61z M177.66,112.32l-1.6-1.2
				c0.4-0.54,0.8-1.07,1.21-1.61l1.59,1.21C178.46,111.26,178.06,111.79,177.66,112.32z M509.66,108.85
				c-0.41-0.52-0.82-1.04-1.23-1.56l1.57-1.24c0.41,0.52,0.83,1.05,1.24,1.58L509.66,108.85z M181.3,107.58l-1.57-1.24
				c0.42-0.53,0.83-1.05,1.25-1.57l1.56,1.26C182.12,106.54,181.71,107.06,181.3,107.58z M505.94,104.19
				c-0.42-0.51-0.85-1.02-1.27-1.53l1.53-1.29c0.43,0.51,0.86,1.03,1.28,1.54L505.94,104.19z M185.07,102.94l-1.54-1.28
				c0.43-0.51,0.86-1.03,1.3-1.54l1.52,1.3C185.92,101.93,185.49,102.43,185.07,102.94z M502.07,99.65c-0.44-0.5-0.88-1-1.32-1.49
				l1.49-1.33c0.44,0.5,0.89,1,1.33,1.51L502.07,99.65z M188.97,98.42l-1.5-1.33c0.44-0.5,0.89-1,1.34-1.5l1.48,1.34
				C189.85,97.43,189.41,97.92,188.97,98.42z M498.09,95.21c-0.45-0.49-0.9-0.97-1.36-1.45l1.46-1.37c0.46,0.49,0.92,0.98,1.37,1.47
				L498.09,95.21z M192.99,94.01l-1.46-1.37c0.46-0.49,0.92-0.98,1.38-1.46l1.45,1.38C193.9,93.04,193.45,93.52,192.99,94.01z
				 M493.97,90.88c-0.46-0.47-0.93-0.95-1.4-1.42l1.42-1.41c0.47,0.47,0.94,0.95,1.41,1.43L493.97,90.88z M197.14,89.72l-1.42-1.41
				c0.47-0.47,0.95-0.95,1.42-1.42l1.4,1.42C198.08,88.78,197.61,89.24,197.14,89.72z M489.74,86.68c-0.48-0.46-0.96-0.92-1.44-1.38
				l1.38-1.45c0.49,0.46,0.97,0.92,1.45,1.39L489.74,86.68z M201.41,85.54l-1.38-1.45c0.49-0.46,0.97-0.92,1.46-1.38l1.36,1.46
				C202.37,84.63,201.89,85.09,201.41,85.54z M485.38,82.59c-0.49-0.45-0.98-0.89-1.48-1.33l1.33-1.49c0.5,0.45,1,0.9,1.49,1.35
				L485.38,82.59z M205.79,81.5l-1.34-1.49c0.5-0.45,1-0.89,1.5-1.33l1.32,1.5C206.78,80.61,206.29,81.05,205.79,81.5z
				 M480.91,78.63c-0.5-0.43-1.01-0.86-1.52-1.29l1.29-1.53c0.51,0.43,1.02,0.87,1.53,1.3L480.91,78.63z M210.29,77.57l-1.29-1.53
				c0.51-0.43,1.02-0.86,1.54-1.29l1.28,1.54C211.3,76.72,210.79,77.14,210.29,77.57z M476.33,74.8c-0.52-0.42-1.04-0.83-1.55-1.25
				l1.25-1.56c0.52,0.42,1.04,0.84,1.56,1.26L476.33,74.8z M214.89,73.78l-1.25-1.56c0.52-0.42,1.05-0.83,1.57-1.25l1.23,1.57
				C215.93,72.96,215.41,73.37,214.89,73.78z M471.64,71.1c-0.53-0.4-1.06-0.81-1.59-1.2l1.2-1.6c0.54,0.4,1.07,0.81,1.6,1.22
				L471.64,71.1z M219.6,70.13l-1.2-1.6c0.53-0.4,1.07-0.8,1.61-1.2l1.19,1.61C220.66,69.33,220.13,69.73,219.6,70.13z
				 M466.85,67.53c-0.54-0.39-1.08-0.77-1.62-1.16l1.16-1.63c0.55,0.39,1.09,0.78,1.64,1.17L466.85,67.53z M224.41,66.61l-1.16-1.63
				c0.54-0.39,1.09-0.77,1.64-1.15l1.14,1.64C225.49,65.84,224.95,66.22,224.41,66.61z M461.95,64.11c-0.55-0.37-1.1-0.74-1.66-1.11
				l1.11-1.66c0.56,0.37,1.11,0.75,1.67,1.12L461.95,64.11z M229.32,63.22l-1.11-1.66c0.56-0.37,1.11-0.74,1.67-1.11l1.09,1.67
				C230.42,62.49,229.87,62.86,229.32,63.22z M456.96,60.82c-0.56-0.36-1.12-0.71-1.68-1.06l1.06-1.7c0.57,0.36,1.14,0.71,1.7,1.08
				L456.96,60.82z M234.32,59.98l-1.06-1.69c0.57-0.36,1.13-0.71,1.7-1.06l1.05,1.7C235.45,59.28,234.88,59.63,234.32,59.98z
				 M451.87,57.68c-0.57-0.34-1.14-0.68-1.72-1.02l1.01-1.72c0.58,0.34,1.16,0.68,1.73,1.02L451.87,57.68z M239.41,56.89l-1.01-1.72
				c0.58-0.34,1.15-0.67,1.73-1.01l1,1.73C240.56,56.22,239.98,56.56,239.41,56.89z M446.69,54.68c-0.58-0.33-1.16-0.65-1.75-0.97
				l0.96-1.75c0.59,0.32,1.17,0.65,1.76,0.97L446.69,54.68z M244.59,53.94l-0.96-1.75c0.58-0.32,1.17-0.64,1.76-0.96l0.95,1.76
				C245.75,53.31,245.17,53.63,244.59,53.94z M441.43,51.83c-0.59-0.31-1.18-0.61-1.77-0.92l0.91-1.78c0.6,0.3,1.2,0.61,1.79,0.92
				L441.43,51.83z M249.85,51.15l-0.91-1.78c0.59-0.3,1.19-0.61,1.79-0.91l0.9,1.79C251.02,50.55,250.43,50.85,249.85,51.15z
				 M436.09,49.14c-0.6-0.29-1.2-0.58-1.8-0.87l0.86-1.81c0.61,0.29,1.21,0.58,1.81,0.87L436.09,49.14z M255.18,48.5l-0.86-1.8
				c0.6-0.29,1.2-0.57,1.81-0.85l0.85,1.81C256.37,47.94,255.77,48.22,255.18,48.5z M430.67,46.59c-0.61-0.27-1.21-0.54-1.83-0.81
				l0.81-1.83c0.61,0.27,1.23,0.54,1.84,0.82L430.67,46.59z M260.58,46.02l-0.81-1.83c0.61-0.27,1.22-0.54,1.83-0.8l0.79,1.84
				C261.79,45.48,261.18,45.75,260.58,46.02z M425.18,44.21c-0.62-0.25-1.23-0.51-1.85-0.76l0.75-1.85
				c0.62,0.25,1.24,0.51,1.86,0.77L425.18,44.21z M266.05,43.68l-0.76-1.85c0.62-0.25,1.24-0.5,1.86-0.75l0.74,1.86
				C267.28,43.18,266.66,43.43,266.05,43.68z M419.62,41.98c-0.62-0.24-1.25-0.47-1.87-0.71l0.7-1.88c0.63,0.24,1.26,0.47,1.89,0.71
				L419.62,41.98z M271.61,41.5l-0.7-1.87c0.63-0.24,1.25-0.47,1.88-0.7l0.69,1.88C272.85,41.04,272.23,41.27,271.61,41.5z
				 M413.99,39.92c-0.63-0.22-1.26-0.44-1.89-0.65l0.64-1.89c0.64,0.22,1.27,0.44,1.91,0.66L413.99,39.92z M277.23,39.48l-0.65-1.89
				c0.63-0.22,1.27-0.43,1.91-0.64l0.63,1.9C278.48,39.05,277.85,39.27,277.23,39.48z M408.31,38.02c-0.63-0.2-1.27-0.4-1.91-0.6
				l0.59-1.91c0.64,0.2,1.29,0.4,1.93,0.6L408.31,38.02z M282.9,37.62l-0.6-1.91c0.64-0.2,1.28-0.4,1.92-0.59l0.58,1.92
				C284.17,37.23,283.53,37.43,282.9,37.62z M402.59,36.28c-0.64-0.18-1.28-0.36-1.92-0.54l0.53-1.93c0.65,0.18,1.29,0.36,1.93,0.54
				L402.59,36.28z M288.62,35.93L288.09,34c0.64-0.18,1.29-0.36,1.94-0.53l0.52,1.93C289.9,35.58,289.26,35.75,288.62,35.93z
				 M396.82,34.72c-0.64-0.16-1.29-0.33-1.93-0.48l0.48-1.94c0.65,0.16,1.3,0.32,1.95,0.49L396.82,34.72z M294.4,34.4l-0.48-1.94
				c0.65-0.16,1.3-0.32,1.95-0.48l0.46,1.95C295.68,34.08,295.04,34.24,294.4,34.4z M391.02,33.32c-0.65-0.15-1.29-0.29-1.94-0.43
				l0.42-1.96c0.66,0.14,1.31,0.29,1.96,0.43L391.02,33.32z M300.21,33.04l-0.43-1.95c0.65-0.14,1.31-0.28,1.96-0.42l0.41,1.96
				C301.51,32.76,300.86,32.9,300.21,33.04z M385.18,32.1c-0.65-0.13-1.3-0.25-1.96-0.37l0.37-1.97c0.66,0.12,1.32,0.25,1.97,0.38
				L385.18,32.1z M306.06,31.85l-0.37-1.96c0.66-0.12,1.32-0.25,1.98-0.36l0.35,1.97C307.36,31.61,306.71,31.73,306.06,31.85z
				 M379.3,31.03c-0.65-0.11-1.31-0.21-1.96-0.32l0.31-1.98c0.66,0.1,1.32,0.21,1.98,0.32L379.3,31.03z M311.94,30.83l-0.31-1.97
				c0.66-0.11,1.32-0.21,1.99-0.31l0.3,1.98C313.25,30.62,312.6,30.72,311.94,30.83z M373.4,30.14c-0.66-0.09-1.31-0.18-1.97-0.26
				l0.25-1.98c0.67,0.08,1.33,0.17,1.99,0.26L373.4,30.14z M317.85,29.97l-0.26-1.98c0.66-0.09,1.33-0.17,1.99-0.25l0.24,1.99
				C319.16,29.81,318.51,29.89,317.85,29.97z M367.47,29.42c-0.66-0.07-1.32-0.14-1.98-0.2l0.2-1.99c0.67,0.06,1.33,0.13,2,0.2
				L367.47,29.42z M323.78,29.29l-0.2-1.99c0.67-0.07,1.33-0.13,2-0.19l0.18,1.99C325.1,29.16,324.44,29.22,323.78,29.29z
				 M361.53,28.87c-0.66-0.05-1.32-0.1-1.98-0.15l0.14-2c0.67,0.05,1.34,0.1,2,0.15L361.53,28.87z M329.73,28.77l-0.14-2
				c0.67-0.05,1.34-0.09,2.01-0.14l0.13,2C331.05,28.68,330.39,28.73,329.73,28.77z M355.57,28.49c-0.66-0.03-1.32-0.06-1.99-0.09
				l0.08-2c0.67,0.03,1.34,0.06,2.01,0.09L355.57,28.49z M335.69,28.43l-0.09-2c0.67-0.03,1.33-0.06,2-0.08l0.07,2
				C337.01,28.37,336.35,28.4,335.69,28.43z M349.6,28.27c-0.66-0.01-1.33-0.03-1.99-0.03l0.03-2c0.67,0.01,1.34,0.02,2.01,0.03
				L349.6,28.27z M341.64,28.25l-0.03-2c0.67-0.01,1.34-0.02,2.01-0.02l0.01,2C342.97,28.23,342.31,28.24,341.64,28.25z"/>
		</g>
		<g>
			<path class="st3" d="M305.71,223.85c0.78-0.13,1.95-0.22,3.25-0.22c1.6,0,2.72,0.24,3.49,0.85c0.64,0.51,0.99,1.26,0.99,2.26
				c0,1.38-0.98,2.32-1.9,2.66v0.05c0.75,0.3,1.17,1.02,1.44,2.02c0.34,1.22,0.67,2.63,0.88,3.04h-2.5
				c-0.18-0.3-0.43-1.18-0.75-2.51c-0.29-1.34-0.75-1.71-1.74-1.73h-0.74v4.24h-2.42V223.85z M308.13,228.49h0.96
				c1.22,0,1.94-0.61,1.94-1.55c0-0.99-0.67-1.49-1.79-1.5c-0.59,0-0.93,0.05-1.1,0.08V228.49z"/>
			<path class="st3" d="M321.62,229.93h-3.97v2.56h4.43v2h-6.88V223.7h6.66v2h-4.21v2.24h3.97V229.93z"/>
			<path class="st3" d="M323.82,231.98c0.66,0.34,1.66,0.67,2.71,0.67c1.12,0,1.71-0.46,1.71-1.17c0-0.67-0.51-1.06-1.81-1.52
				c-1.79-0.62-2.96-1.62-2.96-3.18c0-1.84,1.54-3.25,4.08-3.25c1.22,0,2.11,0.26,2.75,0.54l-0.54,1.97
				c-0.43-0.21-1.2-0.51-2.26-0.51c-1.06,0-1.57,0.48-1.57,1.04c0,0.69,0.61,0.99,2,1.52c1.91,0.7,2.8,1.7,2.8,3.22
				c0,1.81-1.39,3.35-4.35,3.35c-1.23,0-2.45-0.32-3.06-0.66L323.82,231.98z"/>
			<path class="st3" d="M334.83,223.7v10.79h-2.45V223.7H334.83z"/>
			<path class="st3" d="M336.95,223.7h2.45v8.74h4.29v2.05h-6.74V223.7z"/>
			<path class="st3" d="M347.57,223.7v10.79h-2.45V223.7H347.57z"/>
			<path class="st3" d="M356.1,229.93h-3.97v2.56h4.43v2h-6.88V223.7h6.66v2h-4.21v2.24h3.97V229.93z"/>
			<path class="st3" d="M358.22,234.49V223.7h2.85l2.24,3.95c0.64,1.14,1.28,2.48,1.76,3.7h0.05c-0.16-1.42-0.21-2.88-0.21-4.5
				v-3.15h2.24v10.79h-2.56l-2.3-4.16c-0.64-1.15-1.34-2.54-1.87-3.81l-0.05,0.02c0.06,1.42,0.1,2.95,0.1,4.71v3.25H358.22z"/>
			<path class="st3" d="M377.19,234.19c-0.45,0.22-1.46,0.46-2.77,0.46c-3.73,0-5.65-2.32-5.65-5.39c0-3.68,2.63-5.73,5.89-5.73
				c1.26,0,2.23,0.26,2.66,0.48l-0.5,1.94c-0.5-0.21-1.18-0.4-2.05-0.4c-1.94,0-3.44,1.17-3.44,3.57c0,2.16,1.28,3.52,3.46,3.52
				c0.74,0,1.55-0.16,2.03-0.35L377.19,234.19z"/>
			<path class="st3" d="M385.2,229.93h-3.97v2.56h4.43v2h-6.88V223.7h6.66v2h-4.21v2.24h3.97V229.93z"/>
			<path class="st3" d="M332.06,253.39c-0.45,0.22-1.46,0.46-2.77,0.46c-3.73,0-5.65-2.32-5.65-5.39c0-3.68,2.63-5.73,5.89-5.73
				c1.26,0,2.23,0.26,2.66,0.48l-0.5,1.94c-0.5-0.21-1.18-0.4-2.05-0.4c-1.94,0-3.44,1.17-3.44,3.57c0,2.16,1.28,3.52,3.46,3.52
				c0.74,0,1.55-0.16,2.03-0.35L332.06,253.39z"/>
			<path class="st3" d="M336.27,253.69v-4.42l-3.41-6.37h2.78l1.1,2.59c0.34,0.78,0.56,1.36,0.83,2.06h0.03
				c0.24-0.67,0.5-1.3,0.82-2.06l1.09-2.59h2.74l-3.55,6.29v4.5H336.27z"/>
			<path class="st3" d="M350.59,253.39c-0.45,0.22-1.46,0.46-2.77,0.46c-3.73,0-5.65-2.32-5.65-5.39c0-3.68,2.63-5.73,5.89-5.73
				c1.26,0,2.23,0.26,2.66,0.48l-0.5,1.94c-0.5-0.21-1.18-0.4-2.05-0.4c-1.94,0-3.44,1.17-3.44,3.57c0,2.16,1.28,3.52,3.46,3.52
				c0.74,0,1.55-0.16,2.03-0.35L350.59,253.39z"/>
			<path class="st3" d="M352.18,242.9h2.45v8.74h4.29v2.05h-6.74V242.9z"/>
			<path class="st3" d="M366.78,249.13h-3.97v2.56h4.43v2h-6.88V242.9h6.66v2h-4.21v2.24h3.97V249.13z"/>
		</g>
		<g>
			<path class="st3" d="M34.31,114.01h2.44v8.72h4.28v2.04h-6.73V114.01z"/>
			<path class="st3" d="M48.89,120.23h-3.96v2.56h4.42v2h-6.87v-10.77h6.65v2h-4.2v2.24h3.96V120.23z"/>
			<path class="st3" d="M53.52,122.02l-0.77,2.76h-2.52l3.29-10.77h3.2l3.34,10.77h-2.62l-0.83-2.76H53.52z M56.25,120.19
				l-0.67-2.29c-0.19-0.64-0.38-1.44-0.54-2.08h-0.03c-0.16,0.64-0.32,1.45-0.5,2.08l-0.64,2.29H56.25z"/>
			<path class="st3" d="M61.5,114.15c0.78-0.13,1.95-0.22,3.24-0.22c1.6,0,2.72,0.24,3.48,0.85c0.64,0.51,0.99,1.26,0.99,2.25
				c0,1.37-0.97,2.32-1.9,2.65v0.05c0.75,0.3,1.17,1.02,1.44,2.01c0.33,1.21,0.67,2.62,0.88,3.04h-2.49
				c-0.18-0.3-0.43-1.18-0.75-2.51c-0.29-1.34-0.75-1.71-1.74-1.73h-0.74v4.23H61.5V114.15z M63.91,118.79h0.96
				c1.21,0,1.93-0.61,1.93-1.55c0-0.99-0.67-1.49-1.79-1.5c-0.59,0-0.93,0.05-1.1,0.08V118.79z"/>
			<path class="st3" d="M70.97,124.78v-10.77h2.84l2.24,3.95c0.64,1.13,1.28,2.48,1.76,3.69h0.05c-0.16-1.42-0.21-2.88-0.21-4.49
				v-3.15h2.24v10.77h-2.56l-2.3-4.15c-0.64-1.15-1.34-2.54-1.87-3.8l-0.05,0.02c0.06,1.42,0.1,2.94,0.1,4.7v3.24H70.97z"/>
			<path class="st3" d="M84.44,114.01v10.77H82v-10.77H84.44z"/>
			<path class="st3" d="M86.55,124.78v-10.77h2.84l2.24,3.95c0.64,1.13,1.28,2.48,1.76,3.69h0.05c-0.16-1.42-0.21-2.88-0.21-4.49
				v-3.15h2.24v10.77h-2.56l-2.3-4.15c-0.64-1.15-1.34-2.54-1.87-3.8l-0.05,0.02c0.06,1.42,0.1,2.94,0.1,4.7v3.24H86.55z"/>
			<path class="st3" d="M106.57,124.28c-0.75,0.26-2.17,0.61-3.59,0.61c-1.96,0-3.39-0.5-4.38-1.45c-0.99-0.93-1.53-2.33-1.52-3.91
				c0.02-3.58,2.62-5.62,6.15-5.62c1.39,0,2.46,0.27,2.99,0.53l-0.51,1.95c-0.59-0.26-1.33-0.46-2.51-0.46
				c-2.03,0-3.56,1.15-3.56,3.48c0,2.22,1.39,3.53,3.39,3.53c0.56,0,1.01-0.06,1.2-0.16v-2.25h-1.66v-1.9h4.01V124.28z"/>
		</g>
		<g>
			<polygon class="st3" points="129,157.28 106.25,134.53 34.77,134.53 34.77,132.53 107.08,132.53 130.41,155.86 			"/>
		</g>
		<circle class="st1" cx="477.11" cy="398.93" r="34.34"/>
		<circle class="st42" cx="146.1" cy="171.43" r="34.34"/>
		<g>
			<polygon class="st0" points="132.67,185.96 132.67,187.96 137.71,187.96 137.71,185.96 137,185.96 140.78,182.18 140.78,179.35 
				134.17,185.96 			"/>
			<polygon class="st0" points="148.09,179.35 148.09,182.18 151.86,185.96 151.87,185.96 151.16,185.96 151.16,187.96 
				156.21,187.96 156.21,185.96 154.71,185.96 			"/>
			<path class="st0" d="M159.43,175.88v-16.5h0.98v-2h-14.97v-1.52h-2v1.52h-14.97v2h0.98v16.5h-0.98v2h12.32h1.01v0.46v2.83v0.71
				h0.12h1.52v4.08h-1.52v2h5.04v-2h-1.52v-4.08h1.52h0.12v-0.71v-2.69v-0.6h1.01h12.32v-2H159.43z M131.45,175.88v-16.5h25.98v16.5
				H131.45z M143.79,179.88v-2h1.29v2H143.79z"/>
		</g>
		<g>
			<g>
				<path class="st3" d="M478.33,399.81h-2.26v-7.37h2.26V399.81z M478.33,403.69h-2.26v-1.98h2.26V403.69z"/>
			</g>
			<g>
				<path class="st3" d="M477.11,423.56c-13.59,0-24.64-11.05-24.64-24.64s11.05-24.64,24.64-24.64s24.64,11.05,24.64,24.64
					S490.7,423.56,477.11,423.56z M477.11,376.29c-12.48,0-22.64,10.16-22.64,22.64s10.16,22.64,22.64,22.64
					s22.64-10.16,22.64-22.64S489.59,376.29,477.11,376.29z"/>
			</g>
			<g>
				<path class="st3" d="M490.91,408.82h-27.6c-0.36,0-0.69-0.19-0.87-0.5s-0.18-0.69,0-1l13.8-23.9c0.36-0.62,1.38-0.62,1.73,0
					l13.8,23.9c0.18,0.31,0.18,0.69,0,1S491.27,408.82,490.91,408.82z M465.04,406.82h24.13l-12.07-20.9L465.04,406.82z"/>
			</g>
		</g>
		<g>
			<path class="st3" d="M535.41,17.89c-0.05-1.29-0.1-2.86-0.1-4.42h-0.05c-0.33,1.37-0.78,2.91-1.2,4.17l-1.31,4.2h-1.9l-1.15-4.17
				c-0.35-1.26-0.72-2.8-0.97-4.2h-0.03c-0.06,1.45-0.11,3.12-0.19,4.46l-0.19,4.09h-2.25l0.69-10.77H530l1.05,3.59
				c0.34,1.25,0.67,2.59,0.91,3.85h0.05c0.3-1.25,0.67-2.67,1.02-3.87l1.15-3.58h3.18l0.59,10.77h-2.38L535.41,17.89z"/>
			<path class="st3" d="M542.28,19.25l-0.77,2.76h-2.52l3.29-10.77h3.2l3.34,10.77h-2.62l-0.83-2.76H542.28z M545.02,17.43
				l-0.67-2.29c-0.19-0.64-0.38-1.44-0.54-2.08h-0.03c-0.16,0.64-0.32,1.45-0.5,2.08l-0.64,2.29H545.02z"/>
			<path class="st3" d="M555.55,22.01l-0.97-1.95c-0.4-0.75-0.65-1.31-0.96-1.93h-0.03c-0.22,0.62-0.5,1.18-0.83,1.93l-0.89,1.95
				h-2.78l3.12-5.45l-3-5.32h2.8l0.94,1.96c0.32,0.66,0.56,1.18,0.82,1.79h0.03c0.26-0.69,0.46-1.17,0.74-1.79l0.91-1.96h2.78
				l-3.04,5.26l3.2,5.51H555.55z"/>
			<path class="st3" d="M562.12,11.25v10.77h-2.44V11.25H562.12z"/>
			<path class="st3" d="M573.33,17.89c-0.05-1.29-0.1-2.86-0.1-4.42h-0.05c-0.33,1.37-0.78,2.91-1.2,4.17l-1.31,4.2h-1.9l-1.15-4.17
				c-0.35-1.26-0.72-2.8-0.97-4.2h-0.03c-0.06,1.45-0.11,3.12-0.19,4.46l-0.19,4.09h-2.25l0.69-10.77h3.24l1.05,3.59
				c0.34,1.25,0.67,2.59,0.91,3.85h0.05c0.3-1.25,0.67-2.67,1.02-3.87l1.15-3.58h3.18l0.59,10.77h-2.38L573.33,17.89z"/>
			<path class="st3" d="M580.17,11.25v6.2c0,1.85,0.7,2.8,1.95,2.8c1.28,0,1.98-0.89,1.98-2.8v-6.2h2.43v6.04
				c0,3.32-1.68,4.9-4.49,4.9c-2.72,0-4.31-1.5-4.31-4.94v-6.01H580.17z"/>
			<path class="st3" d="M597.75,17.89c-0.05-1.29-0.1-2.86-0.1-4.42h-0.05c-0.33,1.37-0.78,2.91-1.2,4.17l-1.31,4.2h-1.9l-1.15-4.17
				c-0.35-1.26-0.72-2.8-0.97-4.2h-0.03c-0.06,1.45-0.11,3.12-0.19,4.46l-0.19,4.09h-2.25l0.69-10.77h3.24l1.05,3.59
				c0.34,1.25,0.67,2.59,0.91,3.85h0.05c0.3-1.25,0.67-2.67,1.02-3.87l1.15-3.58h3.18l0.59,10.77h-2.38L597.75,17.89z"/>
			<path class="st3" d="M526.31,30.56c0.75-0.13,1.8-0.22,3.29-0.22c1.5,0,2.57,0.29,3.29,0.86c0.69,0.54,1.15,1.44,1.15,2.49
				c0,1.05-0.35,1.95-0.99,2.56c-0.83,0.78-2.06,1.13-3.5,1.13c-0.32,0-0.61-0.02-0.83-0.05v3.85h-2.41V30.56z M528.72,35.45
				c0.21,0.05,0.46,0.06,0.81,0.06c1.29,0,2.09-0.65,2.09-1.76c0-0.99-0.69-1.58-1.9-1.58c-0.5,0-0.83,0.05-1.01,0.1V35.45z"/>
			<path class="st3" d="M542,36.64h-3.96v2.56h4.42v2h-6.87V30.42h6.65v2h-4.2v2.24H542V36.64z"/>
			<path class="st3" d="M544.12,30.56c0.78-0.13,1.95-0.22,3.24-0.22c1.6,0,2.72,0.24,3.48,0.85c0.64,0.51,0.99,1.26,0.99,2.25
				c0,1.37-0.97,2.32-1.9,2.65v0.05c0.75,0.3,1.17,1.02,1.44,2.01c0.33,1.21,0.67,2.62,0.88,3.04h-2.49
				c-0.18-0.3-0.43-1.18-0.75-2.51c-0.29-1.34-0.75-1.71-1.74-1.73h-0.74v4.23h-2.41V30.56z M546.53,35.2h0.96
				c1.21,0,1.93-0.61,1.93-1.55c0-0.99-0.67-1.49-1.79-1.5c-0.59,0-0.93,0.05-1.1,0.08V35.2z"/>
			<path class="st3" d="M553.6,30.42h6.58v2h-4.14v2.46h3.87v1.98h-3.87v4.33h-2.44V30.42z"/>
			<path class="st3" d="M571.88,35.69c0,3.53-2.14,5.67-5.29,5.67c-3.19,0-5.06-2.41-5.06-5.48c0-3.23,2.06-5.64,5.24-5.64
				C570.07,30.25,571.88,32.72,571.88,35.69z M564.1,35.84c0,2.11,0.99,3.59,2.62,3.59c1.65,0,2.59-1.57,2.59-3.66
				c0-1.93-0.93-3.59-2.6-3.59C565.06,32.18,564.1,33.74,564.1,35.84z"/>
			<path class="st3" d="M573.48,30.56c0.78-0.13,1.95-0.22,3.24-0.22c1.6,0,2.72,0.24,3.48,0.85c0.64,0.51,0.99,1.26,0.99,2.25
				c0,1.37-0.97,2.32-1.9,2.65v0.05c0.75,0.3,1.17,1.02,1.44,2.01c0.33,1.21,0.67,2.62,0.88,3.04h-2.49
				c-0.18-0.3-0.43-1.18-0.75-2.51c-0.29-1.34-0.75-1.71-1.74-1.73h-0.74v4.23h-2.41V30.56z M575.89,35.2h0.96
				c1.21,0,1.93-0.61,1.93-1.55c0-0.99-0.67-1.49-1.79-1.5c-0.59,0-0.93,0.05-1.1,0.08V35.2z"/>
			<path class="st3" d="M592.06,37.07c-0.05-1.29-0.1-2.86-0.1-4.43h-0.05c-0.33,1.37-0.78,2.91-1.2,4.17l-1.31,4.2h-1.9l-1.15-4.17
				c-0.35-1.26-0.72-2.8-0.97-4.2h-0.03c-0.06,1.45-0.11,3.12-0.19,4.46l-0.19,4.09h-2.25l0.69-10.77h3.24l1.05,3.59
				c0.34,1.25,0.67,2.59,0.91,3.85h0.05c0.3-1.25,0.67-2.67,1.02-3.87l1.15-3.58h3.18l0.59,10.77h-2.38L592.06,37.07z"/>
			<path class="st3" d="M598.93,38.43l-0.77,2.76h-2.52l3.29-10.77h3.2l3.34,10.77h-2.62l-0.83-2.76H598.93z M601.66,36.6
				l-0.67-2.29c-0.19-0.64-0.38-1.44-0.54-2.08h-0.03c-0.16,0.64-0.32,1.45-0.5,2.08l-0.64,2.29H601.66z"/>
			<path class="st3" d="M606.91,41.19V30.42h2.84l2.24,3.95c0.64,1.13,1.28,2.48,1.76,3.69h0.05c-0.16-1.42-0.21-2.88-0.21-4.49
				v-3.15h2.24v10.77h-2.56l-2.3-4.15c-0.64-1.15-1.34-2.54-1.87-3.8l-0.05,0.02c0.06,1.42,0.1,2.94,0.1,4.7v3.24H606.91z"/>
			<path class="st3" d="M625.84,40.89c-0.45,0.22-1.45,0.46-2.76,0.46c-3.72,0-5.64-2.32-5.64-5.39c0-3.67,2.62-5.72,5.88-5.72
				c1.26,0,2.22,0.26,2.65,0.48l-0.5,1.93c-0.5-0.21-1.18-0.4-2.04-0.4c-1.93,0-3.43,1.17-3.43,3.56c0,2.16,1.28,3.52,3.45,3.52
				c0.73,0,1.55-0.16,2.03-0.35L625.84,40.89z"/>
			<path class="st3" d="M633.85,36.64h-3.96v2.56h4.42v2h-6.87V30.42h6.65v2h-4.2v2.24h3.96V36.64z"/>
		</g>
		<g>
			<polygon class="st3" points="490.93,82.04 489.52,80.62 522.79,47.35 636.86,47.35 636.86,49.35 523.62,49.35 			"/>
		</g>
		<circle class="st21" cx="486.17" cy="83.97" r="34.34"/>
		<g>
			<path class="st3" d="M503.77,65.91c-0.39-0.39-1.02-0.39-1.41,0l-1.72,1.72c-3.7-2.03-11.11,2.29-16.66,7.84
				c-0.31,0.31-0.61,0.63-0.91,0.94l-1.85-0.6c-0.29-0.09-0.6-0.05-0.86,0.11l-13.56,8.86c-0.37,0.24-0.54,0.7-0.41,1.12
				c0.13,0.42,0.51,0.71,0.96,0.72l9.84,0.03l5.85,5.85l0.03,9.84c0,0.44,0.29,0.83,0.72,0.96c0.09,0.03,0.19,0.04,0.28,0.04
				c0.33,0,0.65-0.17,0.84-0.45l8.86-13.56c0.17-0.25,0.21-0.57,0.11-0.86l-0.6-1.85c0.32-0.3,0.63-0.6,0.94-0.91
				c5.55-5.55,9.88-12.96,7.84-16.66l1.72-1.72C504.16,66.94,504.16,66.31,503.77,65.91z M500.04,69.65
				c0.45,0.45,0.6,1.23,0.47,2.24c-1.13-0.61-2.04-1.56-2.59-2.72C498.87,69.06,499.61,69.21,500.04,69.65z M481.05,77.87l0.55,0.18
				c-1.89,2.21-3.41,4.48-4.46,6.61l-6.45-0.02L481.05,77.87z M491.82,88.64L485.05,99l-0.02-6.45c2.13-1.05,4.4-2.58,6.61-4.46
				L491.82,88.64z M492.8,84.3c-2.84,2.84-5.89,5.11-8.67,6.48l-5.22-5.22c1.36-2.78,3.64-5.83,6.48-8.67
				c3.76-3.76,7.66-6.24,10.55-7.25c0.78,1.87,2.23,3.38,4.06,4.23C498.97,76.76,496.51,80.59,492.8,84.3z"/>
			<path class="st3" d="M487.85,77.09c-0.63,0.63-0.99,1.48-0.98,2.38c0,0.9,0.35,1.74,0.98,2.38c0.66,0.66,1.52,0.98,2.38,0.98
				s1.72-0.33,2.38-0.98c0.63-0.63,0.99-1.48,0.98-2.38c0-0.9-0.35-1.74-0.98-2.38C491.29,75.78,489.16,75.77,487.85,77.09z
				 M491.19,80.43c-0.26,0.26-0.6,0.4-0.96,0.4s-0.71-0.14-0.96-0.4c-0.26-0.26-0.4-0.6-0.4-0.96c0-0.36,0.14-0.71,0.4-0.96
				c0.26-0.26,0.61-0.4,0.96-0.4s0.7,0.13,0.96,0.4c0.26,0.26,0.4,0.6,0.4,0.96C491.59,79.83,491.45,80.17,491.19,80.43z"/>
			
				<rect x="471.52" y="94.57" transform="matrix(0.7071 -0.7071 0.7071 0.7071 71.2879 363.245)" class="st3" width="5.2" height="2"/>
			
				<rect x="475.9" y="95.17" transform="matrix(0.7071 -0.7071 0.7071 0.7071 72.146 366.5159)" class="st3" width="5.2" height="2"/>
			
				<rect x="470.92" y="90.19" transform="matrix(0.7071 -0.7071 0.7071 0.7071 74.2073 361.539)" class="st3" width="5.2" height="2"/>
		</g>
		<path class="st1" d="M13.14,50.61H118.9c0.23-1.25,0.37-2.53,0.37-3.85c0-11.68-9.47-21.14-21.14-21.14
			c-1.23,0-2.43,0.13-3.6,0.33C93.19,13.52,82.67,3.84,69.88,3.84c-11.25,0-20.75,7.5-23.78,17.77c-1.6-0.6-3.33-0.95-5.13-0.95
			c-8.08,0-14.63,6.55-14.63,14.63c0,0.1,0.01,0.2,0.01,0.29C19.13,36.95,13.59,43.09,13.14,50.61z"/>
		<g>
			<rect x="545.7" y="358.91" class="st1" width="11.45" height="32.93"/>
			<rect x="562.22" y="370.68" class="st1" width="11.45" height="21.16"/>
			<rect x="577.96" y="380.39" class="st1" width="11.45" height="11.45"/>
			<g>
				<g>
					
						<rect x="563.09" y="336.33" transform="matrix(0.4436 -0.8962 0.8962 0.4436 -0.8988 702.8267)" class="st1" width="5" height="31.62"/>
				</g>
				<g>
					<polygon class="st1" points="574.48,364.88 589.41,363.93 581.12,351.48 					"/>
				</g>
			</g>
		</g>
	</g>
</g>
</svg>
