<?xml version="1.0" encoding="UTF-8" standalone="no"?>
<svg
   xmlns:dc="http://purl.org/dc/elements/1.1/"
   xmlns:cc="http://creativecommons.org/ns#"
   xmlns:rdf="http://www.w3.org/1999/02/22-rdf-syntax-ns#"
   xmlns:svg="http://www.w3.org/2000/svg"
   xmlns="http://www.w3.org/2000/svg"
   id="svg8"
   version="1.1"
   viewBox="0 0 67.373581 18.797276"
   height="18.797276mm"
   width="67.373581mm">
  <defs
     id="defs2" />
  <metadata
     id="metadata5">
    <rdf:RDF>
      <cc:Work
         rdf:about="">
        <dc:format>image/svg+xml</dc:format>
        <dc:type
           rdf:resource="http://purl.org/dc/dcmitype/StillImage" />
        <dc:title></dc:title>
      </cc:Work>
    </rdf:RDF>
  </metadata>
  <g
     transform="translate(-50.5362,-83.370385)"
     id="layer1">
    <path
       id="path99"
       d="m 55.32527,101.21451 c -0.29935,-0.52422 -1.491012,-2.591075 -2.648139,-4.593015 -1.157127,-2.00193 -2.120419,-3.70318 -2.14065,-3.78054 -0.02089,-0.0799 1.125939,-2.15652 2.653894,-4.80561 l 2.690676,-4.66496 h 5.392402 5.392403 l 2.713125,4.70276 2.713126,4.70275 -2.697732,4.67408 -2.697731,4.674085 -5.41355,0.0218 -5.413551,0.0218 z m 13.39825,-4.085795 c 1.345557,-2.32833 2.447321,-4.28555 2.448363,-4.34937 0.001,-0.0638 -0.716889,-1.35923 -1.595403,-2.87867 -0.878514,-1.51944 -1.987355,-3.4389 -2.464092,-4.26546 l -0.866795,-1.50283 h -4.974146 -4.974146 l -2.404261,4.1607 c -1.322343,2.28838 -2.437687,4.24341 -2.478542,4.34451 -0.06178,0.1529 0.342348,0.9059 2.402218,4.47597 l 2.476498,4.292155 4.991918,-0.0218 4.991919,-0.0218 z m -11.916068,3.323175 c -0.03721,-0.0582 -1.044882,-1.796845 -2.239271,-3.863635 l -2.171615,-3.75779 0.762688,-1.32221 c 0.419479,-0.72721 0.805777,-1.36413 0.858441,-1.41538 0.05266,-0.0512 0.381501,-0.15505 0.730751,-0.23068 0.34925,-0.0756 1.486425,-0.32897 2.527057,-0.56299 1.040631,-0.23402 1.907406,-0.42549 1.926167,-0.42549 0.01876,0 0.03411,-0.0546 0.03411,-0.12129 0,-0.14835 0.09406,-0.121 -2.091543,-0.60819 -0.987366,-0.22008 -1.783792,-0.42221 -1.769835,-0.44917 0.01396,-0.027 0.358812,-0.63004 0.766347,-1.34018 l 0.740973,-1.29117 h 4.420473 4.420474 l 0.612044,1.05885 c 0.336625,0.58236 0.686468,1.18498 0.777429,1.33914 l 0.165383,0.28031 -1.798372,0.40239 c -2.192151,0.49049 -2.094706,0.46282 -2.094706,0.59494 0,0.11646 0.419497,0.22602 3.390322,0.88547 l 1.811776,0.40217 0.783928,1.34953 c 0.431161,0.74225 0.784689,1.39245 0.785618,1.4449 0.0017,0.0984 -4.267568,7.544075 -4.410762,7.692415 -0.114986,0.11911 -0.804989,-0.26618 -1.021686,-0.570505 -0.09702,-0.13626 -0.1941,-0.40618 -0.215725,-0.59984 -0.05097,-0.45646 0.204835,-0.81777 0.578986,-0.81777 0.219956,0 0.240264,-0.0198 0.164975,-0.16042 -0.04722,-0.0882 -0.207158,-0.20272 -0.355413,-0.2544 -0.445731,-0.15538 -0.77477,0.0772 -1.579941,1.11659 -0.658372,0.849915 -1.248713,1.387405 -1.44711,1.317535 -0.04627,-0.0163 0.132805,-0.20319 0.39795,-0.41531 0.378584,-0.302885 0.477288,-0.430125 0.459753,-0.592675 -0.01228,-0.11384 -0.04628,-0.39397 -0.07556,-0.62251 -0.08733,-0.68178 0.378152,-1.26332 0.901629,-1.12643 0.239042,0.0625 0.214779,-0.12205 -0.04857,-0.36945 -0.173325,-0.16283 -0.309365,-0.20526 -0.658128,-0.20526 -0.569582,0 -0.776047,0.16266 -1.665791,1.31233 -1.064656,1.37569 -1.758109,2.032005 -2.147,2.032005 -0.130725,0 -0.06687,-0.0745 0.245537,-0.28643 0.673769,-0.457095 0.815378,-0.645905 0.723836,-0.965095 -0.159708,-0.55687 0.186719,-1.14737 0.673127,-1.14737 0.139098,0 0.252906,-0.0246 0.252906,-0.0546 0,-0.14656 -0.358363,-0.41003 -0.625999,-0.46024 -0.522313,-0.098 -0.794321,0.11546 -1.722991,1.35206 -0.542246,0.72205 -1.397007,1.561665 -1.589836,1.561665 -0.06335,0 -0.145624,-0.0476 -0.182834,-0.10583 z m 3.909994,-3.830035 c 1.1176,-0.64093 2.245485,-1.29328 2.506412,-1.44965 l 0.474412,-0.28432 -0.07105,-0.44592 c -0.03908,-0.24525 -0.0891,-0.5936 -0.111159,-0.7741 -0.02206,-0.18051 -0.05118,-0.33751 -0.0647,-0.34889 -0.0335,-0.0282 -4.457419,2.53604 -4.570672,2.6493 -0.04963,0.0496 -0.100967,0.18805 -0.114092,0.30761 -0.01312,0.11956 -0.04551,0.36036 -0.07197,0.53511 -0.123689,0.81692 -0.141683,1.05105 -0.07801,1.01508 0.03785,-0.0214 0.983226,-0.56329 2.100826,-1.20422 z m 3.394635,0.64676 c -0.0244,-0.0395 -0.06895,-0.3538 -0.09901,-0.6985 -0.03006,-0.3447 -0.07176,-0.64486 -0.09266,-0.66703 -0.08935,-0.0948 -1.382628,0.68497 -1.382628,0.83358 0,0.0337 0.247219,0.10367 0.549376,0.15543 0.302156,0.0518 0.654581,0.17259 0.783166,0.26851 0.258553,0.19289 0.307822,0.2149 0.24176,0.10801 z m -3.603534,-3.6324 1.433472,-0.8255 -1.322687,-0.0234 c -0.727478,-0.0129 -1.337577,-0.008 -1.355775,0.01 -0.04567,0.0457 -0.08586,0.27192 -0.153347,0.8633 -0.0317,0.27777 -0.07613,0.57171 -0.09874,0.6532 -0.02261,0.0815 -0.01754,0.14816 0.01125,0.14816 0.0288,0 0.697416,-0.37147 1.485826,-0.8255 z m 3.031172,-1.6606 c 0.0071,-0.35537 0.280641,-1.19542 0.443449,-1.362 0.166564,-0.17042 0.05829,-0.2159 -0.514056,-0.2159 h -0.592666 v -1.13711 c 0,-1.09605 0.0065,-1.13809 0.180698,-1.16416 0.143809,-0.0215 -0.0042,-0.17398 -0.724881,-0.74673 -0.498069,-0.39581 -0.942115,-0.71966 -0.986769,-0.71966 -0.04465,0 -0.488449,0.32362 -0.986209,0.71916 -0.61135,0.4858 -0.858048,0.72821 -0.760263,0.74704 0.127993,0.0246 0.144757,0.15953 0.144757,1.16467 v 1.13679 h -0.594387 -0.594388 l 0.171458,0.33609 c 0.202871,0.39766 0.440443,1.2632 0.375542,1.36821 -0.130613,0.21133 0.162189,0.24304 2.244701,0.24304 h 2.185598 l 0.0074,-0.36944 z m -3.54194,-3.14036 v -0.72354 h 0.596091 0.59609 l -0.02459,0.6985 -0.02459,0.6985 -0.5715,0.025 -0.5715,0.025 z m 1.439333,-0.004 v -0.71967 h 0.635 0.635 v 0.71967 0.71967 h -0.635 -0.635 z m 16.014123,6.8586 c -0.464885,-0.14503 -0.750756,-0.41098 -0.858446,-0.79865 -0.04731,-0.1703 -0.08427,-1.45474 -0.08454,-2.93754 l -4.72e-4,-2.63493 0.4445,-0.058 c 0.244475,-0.0319 0.530225,-0.079 0.635,-0.10476 l 0.1905,-0.0468 v 2.62779 c 0,2.8539 -0.0045,2.82578 0.476052,2.9464 0.173557,0.0436 0.202556,0.0916 0.166309,0.2753 -0.02415,0.12239 -0.0685,0.3654 -0.09856,0.54003 -0.04733,0.27494 -0.0846,0.31674 -0.278062,0.31184 -0.122876,-0.003 -0.389406,-0.0575 -0.592288,-0.12074 z m 2.675992,0.007 c -0.689013,-0.18536 -0.994987,-0.59662 -0.994465,-1.33665 4.23e-4,-0.56908 0.212147,-0.92949 0.694862,-1.18272 0.298922,-0.15682 0.50235,-0.19112 1.150126,-0.19392 l 0.786972,-0.003 -0.04933,-0.21167 c -0.02713,-0.11641 -0.150465,-0.30186 -0.274078,-0.4121 -0.205314,-0.1831 -0.280093,-0.19684 -0.864646,-0.15884 -0.351941,0.0229 -0.703466,0.0683 -0.781166,0.10102 -0.118816,0.05 -0.150726,-0.0162 -0.20074,-0.41654 -0.03271,-0.26177 -0.04373,-0.49168 -0.02451,-0.51091 0.01923,-0.0192 0.319112,-0.0791 0.666406,-0.13296 1.237586,-0.19206 2.084208,0.0537 2.462839,0.71481 0.191873,0.33504 0.200361,0.41977 0.200481,2.00086 l 8.4e-5,1.651 -0.550333,0.0967 c -0.738778,0.1298 -1.730458,0.12772 -2.222552,-0.005 z m 1.587552,-1.40436 v -0.46567 l -0.374209,-0.0267 c -0.455054,-0.0325 -0.713953,0.0263 -0.889871,0.20224 -0.182167,0.18217 -0.166632,0.42578 0.04035,0.63276 0.144191,0.1442 0.261422,0.16906 0.6985,0.14817 l 0.525229,-0.0251 z m -8.746234,-1.24883 c 0.02556,-2.6875 0.02562,-2.68826 0.236324,-3.05631 0.38844,-0.6785 1.380547,-1.02048 2.265743,-0.78101 0.396204,0.10718 0.399089,0.11393 0.269194,0.6298 l -0.09064,0.35996 -0.496127,-0.0359 c -0.44488,-0.0322 -0.518599,-0.0134 -0.713693,0.18168 -0.161939,0.16194 -0.217568,0.30515 -0.217568,0.56008 v 0.34252 h 0.762 0.762 v 0.508 0.508 h -0.762 -0.762 v 1.73567 1.73566 h -0.6394 -0.6394 z m 11.074567,0.53822 c 0,-1.95638 0.01313,-2.15498 0.145839,-2.2059 0.08021,-0.0308 0.532489,-0.0992 1.005061,-0.15198 1.136193,-0.12697 1.717169,-0.01 2.162458,0.43526 0.169793,0.16979 0.350786,0.46026 0.402206,0.64547 0.0524,0.18874 0.0937,1.01594 0.09396,1.88193 l 4.73e-4,1.54516 h -0.592667 -0.592666 l -0.002,-1.24883 c -0.0031,-1.9168 -0.132213,-2.2225 -0.938689,-2.2225 h -0.413954 v 1.73567 1.73566 h -0.635 -0.635 z m 4.995333,-1.05648 v -3.20643 l 0.4445,-0.058 c 0.244475,-0.0319 0.530225,-0.079 0.635,-0.10476 l 0.1905,-0.0468 0.0027,1.85067 0.0027,1.85068 0.222043,-0.254 c 0.122124,-0.1397 0.441128,-0.49366 0.708899,-0.78658 l 0.486857,-0.53258 0.720498,0.0246 0.720499,0.0246 -0.873292,0.97276 -0.873293,0.97275 0.267534,0.29725 c 0.398782,0.44307 1.002762,1.25514 1.307321,1.75774 l 0.269351,0.4445 h -0.711076 -0.711078 l -0.466413,-0.6985 c -0.256527,-0.38417 -0.602941,-0.8298 -0.769807,-0.99027 l -0.303394,-0.29178 v 0.99028 0.99027 h -0.635 -0.635 z m 5.037667,3.09544 c -0.289247,-0.0922 -0.33437,-0.1383 -0.309221,-0.31598 0.04021,-0.28411 0.04148,-0.28459 0.470469,-0.17657 0.897628,0.22602 1.76042,0.0216 1.812471,-0.42945 0.0447,-0.38732 -0.129663,-0.56223 -0.991658,-0.9948 -0.487361,-0.24457 -0.927516,-0.53155 -1.063933,-0.69367 -0.203339,-0.24165 -0.227563,-0.32975 -0.192114,-0.69867 0.03231,-0.33622 0.09356,-0.46951 0.300928,-0.65479 0.439201,-0.39242 1.159981,-0.51039 1.931493,-0.31613 0.355146,0.0894 0.378462,0.11206 0.326943,0.31733 -0.07419,0.29561 -0.07762,0.29727 -0.388691,0.18884 -0.627918,-0.2189 -1.52379,-0.0457 -1.638843,0.31676 -0.114371,0.36035 0.08662,0.56553 1.042341,1.06411 1.04539,0.54535 1.23001,0.74344 1.228992,1.31867 -8.89e-4,0.50309 -0.132124,0.72319 -0.563508,0.94508 -0.434571,0.22354 -1.458634,0.29089 -1.965669,0.12927 z m 4.867789,0.0319 c -0.95938,-0.29183 -1.4365,-0.99833 -1.433214,-2.12223 0.0029,-1.00408 0.34693,-1.69351 1.015054,-2.03436 1.730969,-0.88308 3.376419,0.78989 2.791749,2.83841 -0.27959,0.97958 -1.414569,1.6099 -2.373589,1.31818 z m 1.095329,-0.55286 c 1.40005,-0.72399 0.97452,-3.34737 -0.542969,-3.34737 -0.71873,0 -1.23932,0.46097 -1.4012,1.24074 -0.246941,1.18952 0.37463,2.23059 1.33178,2.23059 0.20497,0 0.48055,-0.0558 0.612389,-0.12396 z m 3.57501,0.5241 c -0.15577,-0.0498 -0.39303,-0.2004 -0.52726,-0.33462 -0.39757,-0.39758 -0.50187,-0.92465 -0.50187,-2.53622 v -1.42396 h 0.2435 0.24349 l 0.0374,1.50283 c 0.0393,1.58177 0.0921,1.81853 0.4843,2.17351 0.20611,0.18652 0.89145,0.27003 1.48529,0.18098 l 0.38474,-0.0577 v -1.89981 -1.89981 h 0.25548 0.25548 l -0.0226,2.09488 -0.0226,2.09488 -0.55033,0.1025 c -0.666,0.12404 -1.38175,0.12507 -1.76487,0.003 z m 3.88154,-2.00554 v -2.1134 l 0.35983,-0.10638 c 0.37012,-0.10942 1.78608,-0.15313 1.88114,-0.0581 0.0293,0.0293 0.029,0.14992 -5.9e-4,0.26804 -0.0512,0.20413 -0.0762,0.21248 -0.50331,0.16839 -0.24717,-0.0255 -0.62482,-0.0201 -0.83922,0.0121 l -0.38985,0.0585 v 1.94215 1.94214 h -0.254 -0.254 z m 4.13414,1.97988 c -0.47169,-0.14517 -1.00497,-0.70099 -1.15591,-1.20479 -0.0548,-0.18278 -0.0992,-0.61366 -0.0987,-0.95751 0.001,-1.11498 0.55862,-1.90786 1.48655,-2.11552 0.43733,-0.0979 1.24252,-0.0509 1.46293,0.0853 0.15313,0.0946 0.0888,0.48263 -0.0737,0.44398 -0.40311,-0.0959 -1.11429,-0.10523 -1.37841,-0.0181 -0.66503,0.21948 -1.06025,1.06674 -0.94138,2.01812 0.0609,0.48749 0.28284,0.87819 0.65584,1.15456 0.19724,0.14614 0.35272,0.17548 0.889,0.16773 0.35748,-0.005 0.72616,-0.0242 0.81929,-0.0423 0.1307,-0.0254 0.17527,0.0183 0.19535,0.19183 0.024,0.20749 -0.007,0.23191 -0.40633,0.3175 -0.56237,0.12061 -0.96697,0.10926 -1.45454,-0.0408 z m 3.94476,0.014 c -0.87264,-0.27322 -1.24055,-0.83194 -1.29043,-1.95968 -0.0289,-0.65363 -0.006,-0.83163 0.15493,-1.2058 0.32585,-0.75745 0.98289,-1.20065 1.78181,-1.20191 0.4125,-6.4e-4 1.09874,0.3612 1.32781,0.70015 0.18794,0.2781 0.36098,0.96241 0.36098,1.4276 v 0.24245 h -1.57017 -1.57017 l 0.0565,0.3175 c 0.0932,0.52352 0.37065,0.93554 0.75547,1.12182 0.39526,0.19135 1.12578,0.22557 1.5628,0.0732 0.29493,-0.10281 0.45109,-0.001 0.40493,0.26293 -0.0509,0.29142 -1.30283,0.432 -1.97448,0.22172 z m 1.74243,-2.72023 c 0,-0.33978 -0.3152,-0.86915 -0.60752,-1.02031 -0.33727,-0.17441 -0.97542,-0.12459 -1.27887,0.0999 -0.26308,0.19457 -0.56894,0.70879 -0.56894,0.95652 0,0.17396 0.0344,0.17898 1.22766,0.17898 h 1.22767 z"
       style="fill:#326ce5;fill-opacity:1;stroke-width:0.08466667" />
    <path
       id="path97"
       d=""
       style="fill:#000000;stroke-width:0.08466667" />
  </g>
</svg>
